<?xml version="1.0" encoding="UTF-8"?>
<!DOCTYPE svg PUBLIC "-//W3C//DTD SVG 1.1//EN" "http://www.w3.org/Graphics/SVG/1.1/DTD/svg11.dtd">
<!-- Creator: CorelDRAW 2019 (64-Bit) -->
<svg xmlns="http://www.w3.org/2000/svg" xml:space="preserve" width="196.245mm" height="55.2079mm" version="1.1" style="shape-rendering:geometricPrecision; text-rendering:geometricPrecision; image-rendering:optimizeQuality; fill-rule:evenodd; clip-rule:evenodd"
viewBox="0 0 196.0582 55.1554"
 xmlns:xlink="http://www.w3.org/1999/xlink"
 xmlns:xodm="http://www.corel.com/coreldraw/odm/2003">
 <defs>
  <style type="text/css">
   <![CDATA[
    .fil0 {fill:#9A0000}
    .fil1 {fill:black}
   ]]>
  </style>
 </defs>
 <g id="Layer_x0020_1">
  <metadata id="CorelCorpID_0Corel-Layer"/>
  <g id="_751262976">
   <path class="fil0" d="M18.1634 51.1611l-0.0343 0.0174c-0.2219,-0.12 -0.5121,-0.2563 -0.8362,-0.4098 -0.3244,-0.1541 -0.6658,-0.2902 -1.0411,-0.4439l-0.0176 -0.0342 0.0684 -0.1536 0.0342 -0.0173c0.0853,0.0341 0.1704,0.0515 0.2562,0.085 0.1537,0.0517 0.2388,0.0858 0.2903,0.0858 0.0337,0 0.0679,-0.0174 0.1195,-0.0682 0.0682,-0.0685 0.2218,-0.3756 0.4779,-0.9221l0.2729 -0.6142c0.0853,-0.1878 0.1878,-0.4271 0.3071,-0.7174l0.0852 -0.1877c0.0343,-0.0852 0.0343,-0.1362 0,-0.1536 -0.0169,0 -0.0677,-0.0169 -0.1704,-0.0169 -0.2727,0 -0.5122,0 -0.6999,0.0169l-0.0168 -0.0343c0.0341,-0.102 0.0677,-0.2045 0.0852,-0.3413l0.0168 -0.0169c0.5121,0.0852 1.1095,0.1362 1.7754,0.1705l0.0343 0.0682c-0.0509,0.1026 -0.1195,0.2393 -0.2221,0.4271 -0.0341,0.0678 -0.1367,0.2556 -0.2902,0.58l-0.4439 0.973c-0.3071,0.7 -0.478,1.0756 -0.478,1.144 0,0.0341 0.0174,0.085 0.0516,0.1026 0.0512,0.051 0.1877,0.1361 0.4439,0.2561l0.0169 0.0342 -0.0852 0.1704z"/>
   <path class="fil0" d="M25.2133 49.9494c0.0177,-0.1709 -0.0167,-0.3245 -0.1193,-0.444 -0.1025,-0.1198 -0.2562,-0.2051 -0.4606,-0.2218 -0.1878,-0.0174 -0.3246,0 -0.4439,0.085 -0.1195,0.0852 -0.171,0.1878 -0.2053,0.3246 -0.0168,0.1362 0.0343,0.2728 0.1369,0.4097 0.0684,0.0683 0.1537,0.1363 0.273,0.2219 0.0341,0.0343 0.1193,0.0684 0.205,0.1194l0.1536 0.0852c0.273,-0.1026 0.4265,-0.307 0.4606,-0.58zm-0.256 1.9969l0 0c0.0342,-0.2562 -0.0677,-0.478 -0.3071,-0.6484 -0.1537,-0.1026 -0.3246,-0.2052 -0.5124,-0.3072l-0.085 -0.0342c-0.3073,0.1536 -0.495,0.3754 -0.5291,0.6827 -0.0175,0.1709 0,0.3071 0.051,0.4265 0.1195,0.2561 0.3244,0.4097 0.6149,0.4439 0.2046,0.0342 0.3753,-0.0169 0.5122,-0.1194 0.1536,-0.0852 0.2388,-0.2388 0.2556,-0.4439zm0.7173 -0.222l0 0c-0.0342,0.2052 -0.1026,0.393 -0.205,0.5465 -0.2046,0.2902 -0.495,0.4607 -0.8705,0.529 -0.1536,0.0344 -0.3414,0.0344 -0.5464,0 -0.4608,-0.0683 -0.7853,-0.2561 -0.99,-0.5974 -0.0856,-0.1536 -0.1198,-0.3414 -0.0856,-0.5632 0.0342,-0.2729 0.1709,-0.478 0.3929,-0.6317 0.0683,-0.051 0.2219,-0.1194 0.4607,-0.1877 -0.3754,-0.2562 -0.5465,-0.5805 -0.4949,-0.9561 0.051,-0.4266 0.3071,-0.6994 0.7679,-0.8363 0.2051,-0.0516 0.4097,-0.0683 0.649,-0.0342 0.3413,0.0511 0.6144,0.1536 0.7853,0.3414 0.171,0.1708 0.2387,0.3754 0.2051,0.6148 -0.0516,0.3239 -0.2734,0.5633 -0.6832,0.7167 0.2734,0.1368 0.4439,0.3072 0.5466,0.4781 0.0851,0.1537 0.1026,0.3581 0.0682,0.58z"/>
   <path class="fil0" d="M31.2568 50.1712c-0.0516,-0.3419 -0.1367,-0.5806 -0.2735,-0.7174 -0.1362,-0.1536 -0.2902,-0.2046 -0.4781,-0.1876 -0.2387,0.0341 -0.3753,0.1708 -0.4264,0.4096 -0.0342,0.1368 -0.0342,0.2735 0,0.444 0.0343,0.2734 0.1195,0.4948 0.2562,0.6147 0.1369,0.1194 0.2903,0.1703 0.4609,0.1536 0.2393,-0.0342 0.3927,-0.1536 0.4436,-0.3413 0.0344,-0.1026 0.0344,-0.222 0.0175,-0.3755zm0.8362 0.1704l0 0c0.0683,0.478 0.0174,0.8878 -0.1193,1.229 -0.1538,0.3588 -0.393,0.6659 -0.6827,0.9046 -0.3078,0.2561 -0.6832,0.4097 -1.0929,0.4613l-0.2562 -0.1369 0.0515 -0.1193c0.0683,0.0169 0.1363,0.0169 0.2221,0 0.307,-0.0342 0.5801,-0.1878 0.7851,-0.4265 0.0852,-0.1026 0.1538,-0.222 0.2219,-0.376 0.1021,-0.2388 0.1363,-0.58 0.1363,-1.024 -0.2556,0.2903 -0.4096,0.444 -0.4439,0.444 -0.1192,0.0683 -0.273,0.1024 -0.4265,0.1194 -0.2728,0.0342 -0.4949,-0.017 -0.6828,-0.1711 -0.205,-0.1702 -0.3418,-0.4096 -0.3754,-0.7335 -0.0858,-0.5291 0.0852,-0.9562 0.4607,-1.2634 0.1878,-0.1535 0.4099,-0.2393 0.7,-0.2734 0.5461,-0.0678 0.9557,0.1026 1.246,0.5122 0.1025,0.2052 0.2051,0.4955 0.2561,0.8537z"/>
   <path class="fil0" d="M37.9999 49.7784c-0.1026,-0.2388 -0.3073,-0.3755 -0.5975,-0.3928 -0.1878,-0.017 -0.393,-0.017 -0.5974,0l-0.0857 0c-0.1879,0.2902 -0.222,0.5804 -0.1021,0.8536 0.0678,0.1541 0.1535,0.2734 0.2729,0.3419 0.2388,0.1535 0.4948,0.1703 0.7511,0.0677 0.1877,-0.0852 0.307,-0.2046 0.3754,-0.3755 0.0682,-0.1535 0.0516,-0.3239 -0.0167,-0.4948zm-0.8195 -1.844l0 0c-0.0684,-0.1702 -0.1877,-0.2728 -0.3414,-0.3239 -0.1541,-0.0516 -0.3245,-0.0342 -0.5121,0.0511 -0.171,0.0683 -0.2735,0.1708 -0.3414,0.3071 -0.0518,0.1199 -0.0518,0.2562 0,0.3755 0.051,0.1367 0.1703,0.222 0.3239,0.2735 0.0858,0.0168 0.2051,0.0341 0.3419,0.0341 0.051,0 0.1362,0 0.2388,0l0.171 -0.0173c0.1875,-0.2046 0.2219,-0.444 0.1193,-0.7001zm1.3143 1.2808l0 0c0.0852,0.1877 0.1193,0.3922 0.1025,0.5633 -0.0173,0.3587 -0.171,0.6484 -0.4613,0.9044 -0.1194,0.1026 -0.2729,0.2052 -0.4774,0.2904 -0.4099,0.1878 -0.8027,0.1878 -1.144,0 -0.1536,-0.0852 -0.2902,-0.2219 -0.3754,-0.4265 -0.1026,-0.2562 -0.1026,-0.5122 0,-0.7342 0.0341,-0.0683 0.1361,-0.2052 0.2902,-0.3929 -0.4611,-0.0168 -0.7516,-0.2219 -0.905,-0.5633 -0.1705,-0.3922 -0.1021,-0.7679 0.222,-1.1265 0.1368,-0.1536 0.3071,-0.2729 0.5289,-0.3755 0.3246,-0.1367 0.5975,-0.1876 0.8537,-0.1194 0.2393,0.0684 0.3928,0.2046 0.4954,0.4266 0.1362,0.3071 0.0683,0.6316 -0.205,0.973 0.307,-0.0168 0.5463,0.0173 0.7167,0.1199 0.1367,0.0852 0.2562,0.2388 0.3588,0.4608z"/>
   <path class="fil0" d="M17.1903 52.1514c-3.1753,-1.3485 -6.026,-3.2608 -8.4673,-5.7189 -2.4581,-2.4409 -4.3699,-5.2919 -5.7185,-8.4669 -1.3999,-3.295 -2.0998,-6.7771 -2.0998,-10.379 0,-3.6022 0.6999,-7.0843 2.0998,-10.3792 1.3485,-3.175 3.2604,-6.0261 5.7185,-8.4669 2.4414,-2.4413 5.3092,-4.3704 8.4673,-5.7189 3.2944,-1.3827 6.7771,-2.0995 10.3792,-2.0995 3.6016,0 7.0842,0.6994 10.3786,2.0995 3.1756,1.3484 6.0262,3.2776 8.4675,5.7189 2.4582,2.4409 4.3699,5.292 5.7183,8.4669 1.4002,3.295 2.1001,6.777 2.1001,10.3792 0,3.6019 -0.6999,7.0841 -2.1001,10.379 -1.3483,3.1751 -3.2601,6.0261 -5.7183,8.4669 -2.4414,2.4413 -5.292,4.3703 -8.4675,5.7189 -3.2945,1.3995 -6.777,2.0996 -10.3786,2.0996 -3.6021,0 -7.0849,-0.7001 -10.3792,-2.0996zm-0.3411 -49.9834l0 0c-3.2951,1.3826 -6.2481,3.3801 -8.7746,5.9068 -2.5266,2.5264 -4.524,5.4795 -5.9069,8.7738 -1.4334,3.3976 -2.1677,7.0164 -2.1677,10.738 0,3.7213 0.7343,7.3402 2.1677,10.7372 1.3829,3.2776 3.3803,6.2312 5.9069,8.7578 2.5266,2.5259 5.4796,4.5234 8.7746,5.9061 3.3968,1.4342 7.0157,2.1678 10.7372,2.1678 3.7216,0 7.3403,-0.7336 10.7373,-2.1678 3.2781,-1.3827 6.2312,-3.3802 8.7746,-5.9061 2.5264,-2.5266 4.5239,-5.4802 5.9067,-8.7578 1.4337,-3.397 2.1678,-7.0159 2.1678,-10.7372 0,-3.7216 -0.7341,-7.3404 -2.1678,-10.738 -1.3828,-3.2776 -3.3803,-6.2306 -5.9067,-8.7738 -2.5266,-2.5267 -5.4798,-4.5242 -8.7746,-5.9068 -3.397,-1.4335 -7.0157,-2.1679 -10.7373,-2.1679 -3.7215,0 -7.3404,0.7344 -10.7372,2.1679z"/>
   <path class="fil0" d="M19.8705 45.8008c-2.3561,-0.9898 -4.4724,-2.4239 -6.282,-4.2338 -1.8097,-1.8091 -3.2433,-3.926 -4.2339,-6.2816 -1.0239,-2.4414 -1.5529,-5.0188 -1.5529,-7.6989 0,-2.6635 0.529,-5.2578 1.5529,-7.6991 0.9906,-2.3556 2.4242,-4.4724 4.2339,-6.2821 1.8096,-1.8267 3.926,-3.2435 6.282,-4.2333 2.4409,-1.0413 5.0191,-1.5535 7.6991,-1.5535 2.6801,0 5.2577,0.5122 7.6986,1.5535 2.3562,0.9898 4.473,2.424 6.2821,4.2333 1.8097,1.8097 3.2434,3.9266 4.2338,6.2821 1.0239,2.4413 1.5537,5.0356 1.5537,7.6991 0,2.68 -0.5298,5.2575 -1.5537,7.6989 -0.9904,2.3557 -2.4241,4.4725 -4.2338,6.2816 -1.8091,1.8099 -3.926,3.244 -6.2821,4.2338 -2.4409,1.0413 -5.0357,1.5535 -7.6986,1.5535 -2.6633,0 -5.2582,-0.5122 -7.6991,-1.5535zm-0.2393 -37.0094l0 0c-2.424,1.0245 -4.6087,2.4924 -6.4867,4.3699 -1.8776,1.8781 -3.346,4.0633 -4.37,6.4873 -1.0586,2.5092 -1.6044,5.1894 -1.6044,7.9378 0,2.7483 0.5458,5.4284 1.6044,7.9376 1.024,2.4241 2.4924,4.6092 4.37,6.4868 1.8608,1.8781 4.0458,3.3458 6.4867,4.3704 2.5097,1.0755 5.1899,1.6047 7.9383,1.6047 2.7481,0 5.428,-0.5292 7.9378,-1.6047 2.424,-1.0246 4.6093,-2.4923 6.4869,-4.3704 1.8778,-1.8776 3.3459,-4.0454 4.3699,-6.4868 1.0586,-2.5092 1.605,-5.1894 1.605,-7.9376 0,-2.7485 -0.5464,-5.4286 -1.605,-7.9378 -1.024,-2.424 -2.4921,-4.6092 -4.3699,-6.4873 -1.8776,-1.8775 -4.0629,-3.3454 -6.4869,-4.3699 -2.5098,-1.0581 -5.1898,-1.6046 -7.9378,-1.6046 -2.7485,0 -5.4117,0.5291 -7.9383,1.6046z"/>
   <path class="fil0" d="M4.6603 35.5242c-0.2562,0.1026 -0.4265,0.2219 -0.5122,0.3754 -0.0852,0.1537 -0.0677,0.3588 0.0172,0.6148l0.0852 0.2046 1.4854 -0.5633 -0.0344 -0.1025c-0.1026,-0.2563 -0.2387,-0.4265 -0.4096,-0.5291 -0.1704,-0.1026 -0.3923,-0.1026 -0.6316,0zm-0.4781 -0.8877l0 0c0.1878,-0.0685 0.3756,-0.1021 0.5466,-0.0685 0.1708,0.0174 0.3245,0.0858 0.4606,0.1878 0.1369,0.1026 0.2735,0.2562 0.3756,0.4097 0.1198,0.171 0.205,0.3587 0.2902,0.5979l0.1025 0.2729 0.9563 -0.3587c0.051,-0.0168 0.1018,-0.051 0.1362,-0.0851 0.0342,-0.0343 0.0515,-0.0852 0.0515,-0.171 0,-0.0342 0,-0.102 -0.0173,-0.1703 -0.0168,-0.0857 -0.0168,-0.1536 -0.0342,-0.2052l0.1877 -0.0682 0.7173 1.8606 -0.205 0.0858c-0.0169,-0.0516 -0.0512,-0.1026 -0.0852,-0.1709 -0.0343,-0.0684 -0.0685,-0.1194 -0.0851,-0.1537 -0.0517,-0.051 -0.1027,-0.0852 -0.137,-0.0852 -0.0509,0 -0.1024,0 -0.1708,0.0343l-2.3898 0.9214c-0.051,0.0174 -0.1026,0.0516 -0.1369,0.0857 -0.0335,0.0343 -0.0509,0.0852 -0.0509,0.1704 0,0.0515 0,0.1193 0.0174,0.2051 0.0169,0.0851 0.0169,0.1362 0.0335,0.1703l-0.1875 0.0684 -0.7168 -1.8775c-0.1705,-0.444 -0.222,-0.7853 -0.1705,-1.0588 0.0512,-0.2898 0.2221,-0.478 0.5117,-0.5973z"/>
   <path class="fil0" d="M3.2265 28.9348l0.0169 0.2052c-0.1369,0.0679 -0.2562,0.1704 -0.3923,0.3072 -0.1199,0.1368 -0.1878,0.2561 -0.2051,0.3922 0,0.0516 0,0.12 0,0.2052 0,0.0851 0.0173,0.1708 0.0173,0.222l0.0679 0.529 1.4 -0.1703 -0.0509 -0.376c-0.0175,-0.0852 -0.0344,-0.1704 -0.0685,-0.2557 -0.0341,-0.0683 -0.0858,-0.1368 -0.1536,-0.1883 -0.0342,-0.0337 -0.1198,-0.0678 -0.2219,-0.102 -0.1027,-0.0173 -0.1878,-0.0341 -0.2562,-0.0517l-0.0174 -0.2044 1.5026 -0.171 0.0168 0.2052c-0.0682,0.0168 -0.1535,0.051 -0.2562,0.1026 -0.102,0.0509 -0.1703,0.102 -0.2046,0.1362 -0.0515,0.0684 -0.0855,0.1367 -0.1024,0.2051 -0.0169,0.0851 -0.0169,0.1703 0,0.2729l0.0341 0.3754 1.0415 -0.1194c0.1025,-0.0173 0.1875,-0.0341 0.2561,-0.051 0.0683,-0.0173 0.1026,-0.0684 0.1361,-0.1025 0.0175,-0.0342 0.0343,-0.1026 0.0343,-0.1878 0,-0.0683 0,-0.1709 -0.0168,-0.3077 0,-0.0678 -0.0175,-0.1361 -0.0343,-0.2213 -0.0167,-0.0858 -0.0167,-0.1542 -0.0341,-0.222 -0.0169,-0.0684 -0.0344,-0.1368 -0.0684,-0.1878 -0.0168,-0.0683 -0.051,-0.1024 -0.0853,-0.1368 -0.085,-0.0682 -0.2219,-0.1535 -0.4094,-0.2393 -0.1878,-0.0851 -0.3073,-0.1362 -0.41,-0.1536l-0.0174 -0.1878 1.1272 -0.0683 0.3924 3.3801 -0.2047 0.0174c-0.0174,-0.0516 -0.0174,-0.1198 -0.0342,-0.1877 -0.0173,-0.0857 -0.0341,-0.1367 -0.0515,-0.1709 -0.0338,-0.0683 -0.0678,-0.1025 -0.1195,-0.1194 -0.0342,-0.0174 -0.1019,-0.0174 -0.1704,-0.0174l-2.5438 0.2904c-0.0678,0.0173 -0.1195,0.0173 -0.1537,0.0515 -0.0342,0.0169 -0.0682,0.0679 -0.0851,0.1536 -0.0175,0.0512 -0.0343,0.1195 -0.0343,0.1878 0,0.0852 -0.0168,0.1362 -0.0168,0.1878l-0.2051 0.0168 -0.3756 -3.2091 0.9562 -0.0344z"/>
   <path class="fil0" d="M6.4868 22.2089l-0.2047 1.4168c-0.3587,0.171 -0.6657,0.3246 -0.905,0.4614 -0.2388,0.1367 -0.5632,0.3245 -0.9388,0.5465l-0.0169 0.1362 1.1266 0.1709c0.0684,0 0.1194,0 0.1535,-0.0175 0.0518,-0.0168 0.0852,-0.0509 0.1195,-0.1193 0.0173,-0.0342 0.0342,-0.0683 0.0684,-0.1194 0.0174,-0.051 0.0341,-0.1194 0.0515,-0.1709l0.2047 0.0342 -0.273 1.9123 -0.2051 -0.0342c0,-0.0515 0,-0.12 0.0173,-0.1876 0,-0.0858 0,-0.1369 0,-0.1878 -0.0173,-0.0684 -0.0341,-0.12 -0.0858,-0.1368 -0.034,-0.0511 -0.0849,-0.0684 -0.1535,-0.0852l-2.5433 -0.3587c-0.0511,0 -0.1194,0 -0.1538,0 -0.0515,0.0168 -0.0851,0.0511 -0.1193,0.1193 -0.0342,0.0516 -0.0682,0.1195 -0.0857,0.1878 -0.0343,0.0683 -0.051,0.1368 -0.051,0.1709l-0.2052 -0.0342 0.2904 -1.9801 0.2051 0.0342c0,0.0511 0,0.1194 0,0.1878 0,0.0682 0,0.1362 0.0168,0.1876 0.0174,0.0684 0.0343,0.1194 0.0851,0.1537 0.0516,0.0342 0.0858,0.051 0.1543,0.051l1.2115 0.171 0.0175 -0.1026c-0.1027,-0.1537 -0.222,-0.3245 -0.3754,-0.5123 -0.1541,-0.1877 -0.2735,-0.3582 -0.3589,-0.4606 -0.1366,-0.1537 -0.2387,-0.2731 -0.3071,-0.3414 -0.0856,-0.0684 -0.1535,-0.1194 -0.222,-0.1194 -0.0341,0 -0.0515,0.0168 -0.0855,0.0851 -0.0344,0.0511 -0.0512,0.1537 -0.0679,0.273l-0.2051 -0.0344 0.2219 -1.5703 0.2052 0.0342c0,0.1878 0.0167,0.3587 0.0335,0.4949 0.0344,0.1368 0.0858,0.2735 0.1884,0.4097 0.1362,0.2051 0.2557,0.3754 0.3582,0.4953 0.1027,0.1362 0.2394,0.3072 0.3928,0.5118 0.222,-0.1363 0.4949,-0.2898 0.8194,-0.4774 0.3239,-0.1884 0.6317,-0.3762 0.9388,-0.5639 0.0852,-0.0512 0.1535,-0.102 0.2219,-0.1704 0.0685,-0.0683 0.1369,-0.1368 0.1878,-0.222 0.0342,-0.0342 0.0511,-0.0851 0.0682,-0.1368 0.0169,-0.0509 0.0343,-0.1025 0.0343,-0.1362l0.1704 0.0337z"/>
   <path class="fil0" d="M7.8525 18.6074l-0.751 1.8775 -0.1876 -0.0684c0.0169,-0.051 0.0342,-0.102 0.0683,-0.1876 0.0168,-0.0852 0.0335,-0.1537 0.0335,-0.1878 0,-0.0683 -0.0167,-0.1194 -0.0509,-0.1536 -0.0341,-0.0342 -0.0684,-0.0684 -0.1368,-0.1026l-2.3898 -0.9556c-0.051,-0.0173 -0.1024,-0.0343 -0.1537,-0.0173 -0.0509,0 -0.1025,0.0342 -0.1535,0.085 -0.0342,0.0344 -0.0683,0.0858 -0.1194,0.1543 -0.0516,0.0677 -0.0858,0.1194 -0.1025,0.1703l-0.1877 -0.0683 0.751 -1.8775 0.1877 0.0683c-0.0169,0.0511 -0.0343,0.1194 -0.0511,0.1878 -0.0174,0.0682 -0.0341,0.1361 -0.0341,0.1876 0,0.0684 0.0167,0.1194 0.0509,0.1704 0.0343,0.0342 0.0858,0.0683 0.1367,0.0858l2.39 0.9556c0.0515,0.0173 0.1025,0.0341 0.1536,0.0341 0.0515,0 0.1026,-0.0341 0.1535,-0.0851 0.0343,-0.0342 0.0684,-0.0683 0.1027,-0.1536 0.034,-0.0684 0.0851,-0.1368 0.1025,-0.1878l0.1876 0.0684z"/>
   <path class="fil0" d="M8.4332 11.2328c-0.0173,0.0337 -0.0516,0.102 -0.1025,0.1877 -0.0342,0.0852 -0.0516,0.1536 -0.0516,0.2562 0,0.0852 0.0342,0.1704 0.12,0.2555 0.0678,0.0858 0.2045,0.1878 0.3753,0.3246l2.117 1.5195 -0.2562 0.3755 -3.6021 0.1537 1.3827 0.9903c0.171,0.1194 0.3071,0.2046 0.4098,0.2561 0.1026,0.0342 0.2049,0.051 0.2729,0.0342 0.0515,-0.0174 0.1367,-0.0515 0.205,-0.12 0.0852,-0.0682 0.1536,-0.1193 0.1878,-0.1702l0.171 0.1194 -0.9052 1.2633 -0.1703 -0.1194c0.0341,-0.0517 0.0677,-0.1199 0.102,-0.2052 0.0341,-0.0852 0.0516,-0.1535 0.0516,-0.2219 0,-0.0852 -0.0343,-0.1704 -0.1027,-0.2388 -0.0682,-0.0858 -0.1877,-0.1878 -0.3928,-0.3246l-1.3996 -1.007c-0.0683,-0.0511 -0.1367,-0.0852 -0.2219,-0.1026 -0.0852,-0.0168 -0.1535,-0.0342 -0.2387,-0.0168 -0.0858,0.0168 -0.1541,0.051 -0.2393,0.0851 -0.0684,0.0511 -0.1368,0.1026 -0.2221,0.171l-0.1702 -0.12 0.8019 -1.1092 3.1581 -0.1708 -1.1263 -0.802c-0.171,-0.12 -0.3247,-0.2052 -0.4271,-0.2562 -0.1026,-0.0342 -0.1878,-0.0515 -0.273,-0.0342 -0.0683,0.0169 -0.1367,0.051 -0.205,0.1194 -0.0854,0.0683 -0.1364,0.1194 -0.1878,0.1536l-0.1195 -0.1026 0.9046 -1.2632 0.1541 0.1199z"/>
   <path class="fil0" d="M14.7323 8.2282c-0.0343,0.0342 -0.0683,0.0684 -0.1026,0.1026 -0.0341,0.0342 -0.051,0.0678 -0.0852,0.1194 -0.0341,0.0684 -0.0515,0.1194 -0.0341,0.1702 0.0167,0.0517 0.0341,0.1027 0.0683,0.1544l0.2557 0.3238c0.0515,0.0684 0.1023,0.1194 0.1367,0.1537 0.0343,0.0342 0.0682,0.0856 0.1195,0.1541 -0.068,0.1878 -0.2047,0.4266 -0.4098,0.6995 -0.2046,0.2734 -0.4096,0.5122 -0.6317,0.6831 -0.2045,0.1703 -0.4266,0.2897 -0.6484,0.3755 -0.2388,0.0852 -0.4606,0.1194 -0.7,0.102 -0.2389,-0.0168 -0.4607,-0.0852 -0.6826,-0.2046 -0.2221,-0.1194 -0.4271,-0.2902 -0.6149,-0.529 -0.1703,-0.2393 -0.3071,-0.4613 -0.3756,-0.7169 -0.0851,-0.2394 -0.1023,-0.4781 -0.0851,-0.7342 0.0343,-0.2394 0.1195,-0.478 0.239,-0.7 0.1367,-0.2388 0.3244,-0.4438 0.5632,-0.6316 0.1709,-0.1194 0.3245,-0.2388 0.4954,-0.3072 0.1704,-0.0682 0.307,-0.1194 0.4439,-0.1367l0.0342 -0.2047 0.1703 -0.1367 0.8536 1.024 -0.1703 0.1367c-0.3588,-0.2387 -0.649,-0.3587 -0.9219,-0.4096 -0.2563,-0.0343 -0.4954,0.0342 -0.7168,0.205 -0.2562,0.2046 -0.3587,0.4608 -0.3247,0.8021 0.0343,0.3413 0.2221,0.6999 0.5292,1.0929 0.3413,0.4097 0.6658,0.6827 0.9903,0.8193 0.324,0.1364 0.6143,0.0852 0.8537,-0.1199 0.1192,-0.1019 0.2046,-0.2045 0.273,-0.3071 0.0682,-0.1025 0.1023,-0.2045 0.1193,-0.2903l-0.4607 -0.5801c-0.0344,-0.0515 -0.0858,-0.0856 -0.1195,-0.1024 -0.0516,-0.0175 -0.1026,-0.0175 -0.171,0 -0.0509,0.0168 -0.1193,0.0342 -0.1875,0.0683 -0.0685,0.0341 -0.1369,0.0683 -0.171,0.0852l-0.1194 -0.1194 1.4685 -1.1949 0.1193 0.1535z"/>
   <path class="fil0" d="M23.2164 2.7828c-0.0516,0.0168 -0.1198,0.051 -0.205,0.0852 -0.0851,0.0342 -0.1536,0.0851 -0.2046,0.1536 -0.0516,0.051 -0.0858,0.1368 -0.0684,0.2561 0,0.1026 0.0344,0.2729 0.0852,0.4949l0.3413 1.2975c0.1027,0.3756 0.0516,0.7343 -0.1361,1.0245 -0.2052,0.3072 -0.5122,0.5117 -0.9393,0.6316 -0.4948,0.1363 -0.9214,0.1194 -1.2634,-0.0342 -0.3414,-0.1541 -0.5631,-0.4271 -0.6652,-0.8367l-0.4779 -1.7924c-0.0176,-0.0511 -0.0344,-0.1025 -0.0684,-0.1367 -0.0343,-0.0344 -0.0854,-0.0684 -0.1537,-0.0852 -0.0517,-0.0168 -0.1025,-0.0168 -0.171,-0.0168 -0.0682,0 -0.1193,0.0168 -0.1536,0.0168l-0.0509 -0.1878 1.8433 -0.4948 0.0516 0.1878c-0.0516,0.0167 -0.1025,0.0341 -0.1543,0.0682 -0.0509,0.0168 -0.102,0.0511 -0.1535,0.0852 -0.0684,0.0342 -0.0852,0.0852 -0.1021,0.1368 -0.0174,0.0511 0,0.102 0.0169,0.1704l0.4779 1.7755c0.1027,0.3414 0.2388,0.58 0.4266,0.7 0.2053,0.1194 0.444,0.1362 0.7342,0.0677 0.2904,-0.0852 0.4948,-0.222 0.6149,-0.4434 0.1194,-0.2218 0.1362,-0.4953 0.0337,-0.8367l-0.3072 -1.1949c-0.051,-0.2051 -0.1193,-0.3588 -0.1703,-0.4608 -0.0516,-0.1026 -0.1199,-0.1541 -0.1877,-0.1876 -0.0517,-0.0174 -0.1369,-0.0344 -0.2562,-0.0344 -0.1194,0 -0.1878,0 -0.2393,0l-0.0512 -0.205 1.5362 -0.4097 0.0173 0.2051z"/>
   <path class="fil0" d="M30.0788 2.5267c-0.051,0 -0.1192,0.0168 -0.205,0.0168 -0.0852,0.0173 -0.1704,0.0515 -0.2388,0.1026 -0.0685,0.0509 -0.1026,0.1194 -0.1369,0.2387 -0.0342,0.1026 -0.0342,0.2735 -0.051,0.4954l-0.0343 2.6117 -0.4606 0 -2.2196 -2.851 -0.0167 1.7071c0,0.2052 0.0167,0.3756 0.0341,0.4782 0.0338,0.1194 0.0678,0.1876 0.1364,0.2388 0.0516,0.0341 0.1193,0.0682 0.2219,0.1024 0.1025,0.0343 0.1709,0.0511 0.2393,0.0684l0 0.2046 -1.571 -0.0168 0 -0.2052c0.0684,-0.0168 0.1367,-0.0168 0.2219,-0.0336 0.0858,-0.0175 0.1542,-0.0517 0.2221,-0.0858 0.0684,-0.0511 0.1199,-0.1194 0.1368,-0.2219 0.0341,-0.102 0.0341,-0.2729 0.0341,-0.4949l0.0169 -1.724c0,-0.0858 -0.0169,-0.1709 -0.0342,-0.2394 -0.0337,-0.0683 -0.0677,-0.1362 -0.1195,-0.2046 -0.0509,-0.0516 -0.1194,-0.1024 -0.2046,-0.1367 -0.0683,-0.0342 -0.1707,-0.0683 -0.2562,-0.0851l0 -0.222 1.3828 0.0168 1.946 2.4923 0.0174 -1.3827c0,-0.2219 0,-0.3754 -0.0344,-0.4948 -0.0342,-0.1026 -0.0682,-0.1878 -0.1367,-0.2394 -0.0511,-0.0341 -0.1195,-0.0678 -0.2221,-0.102 -0.1023,-0.0341 -0.1702,-0.0515 -0.2387,-0.0682l0 -0.1878 1.5535 0.0168 0.0169 0.2052z"/>
   <path class="fil0" d="M33.9881 6.8798l-1.9634 -0.4955 0.0515 -0.1877c0.0512,0 0.1195,0.0174 0.2047,0.0342 0.0852,0.0174 0.1536,0.0174 0.1878,0.0174 0.0683,-0.0174 0.1193,-0.0342 0.1535,-0.0683 0.0341,-0.0343 0.0516,-0.0852 0.0684,-0.1367l0.6489 -2.4925c0.0169,-0.051 0.0169,-0.1024 0,-0.1536 -0.0174,-0.0509 -0.0515,-0.1025 -0.1026,-0.1367 -0.034,-0.0336 -0.0849,-0.051 -0.1707,-0.102 -0.0685,-0.0342 -0.1363,-0.0683 -0.1878,-0.0858l0.0516 -0.1877 1.9627 0.5122 -0.0343 0.1536c-0.0509,0 -0.1194,-0.0168 -0.1875,-0.0342 -0.0853,-0.0168 -0.1364,-0.0168 -0.2046,-0.0168 -0.0684,0 -0.1195,0.0342 -0.1537,0.0684 -0.0343,0.0342 -0.0517,0.0851 -0.0684,0.1536l-0.6491 2.4923c-0.0168,0.0684 -0.0168,0.1194 0,0.1536 0.0175,0.0511 0.0518,0.0852 0.1027,0.1368 0.0343,0.0169 0.0851,0.0511 0.1536,0.0851 0.0683,0.0342 0.1369,0.0512 0.1877,0.0685l-0.0509 0.2219z"/>
   <path class="fil0" d="M41.158 6.3842c-0.0517,-0.0168 -0.1026,-0.0342 -0.1542,-0.051 -0.051,-0.0168 -0.1194,-0.0168 -0.1703,-0.0168 -0.0852,0 -0.1538,0.0168 -0.222,0.0336 -0.0511,0.0342 -0.1193,0.0684 -0.2051,0.12 -0.102,0.0852 -0.2389,0.2046 -0.444,0.3581 -0.1877,0.1538 -0.4096,0.3246 -0.6483,0.5292 -0.2221,0.1708 -0.4609,0.376 -0.7169,0.598 -0.2562,0.2045 -0.5124,0.4264 -0.7342,0.6142l-0.4438 -0.222c0.0682,-0.6316 0.1192,-1.2633 0.1875,-1.9117 0.0684,-0.6491 0.1027,-1.1096 0.1195,-1.3659 0,-0.0851 0,-0.1709 0,-0.222 -0.0168,-0.051 -0.0511,-0.1194 -0.0851,-0.2045 -0.0344,-0.0517 -0.0684,-0.1025 -0.1027,-0.1367 -0.0342,-0.0343 -0.0851,-0.0684 -0.1361,-0.1194l0.1019 -0.171 1.7414 0.922 -0.1195 0.1702c-0.1709,-0.0676 -0.307,-0.1193 -0.3755,-0.1193 -0.0683,-0.0169 -0.1193,0 -0.1367,0.0343 0,0.0174 -0.0168,0.0342 -0.0168,0.0516 0,0.0167 -0.0173,0.0511 -0.0173,0.0851 -0.017,0.1536 -0.0512,0.4265 -0.0852,0.7852 -0.0343,0.3756 -0.0852,0.9388 -0.171,1.6899 0.3587,-0.3072 0.6491,-0.546 0.9052,-0.7679 0.2387,-0.2051 0.4606,-0.3928 0.6314,-0.5464 0.0853,-0.0852 0.1705,-0.1537 0.2388,-0.222 0.0684,-0.0684 0.1195,-0.1194 0.137,-0.171 0.0341,-0.0509 0.0169,-0.102 -0.0344,-0.1702 -0.0509,-0.0684 -0.1708,-0.171 -0.3587,-0.2729l0.0858 -0.171 1.297 0.6827 -0.0678 0.1877z"/>
   <path class="fil0" d="M45.1015 10.618l-0.1541 -0.1368c0.0681,-0.1362 0.0855,-0.2897 0.1023,-0.4774 0,-0.1878 -0.0168,-0.3246 -0.0851,-0.4272 -0.0343,-0.051 -0.0852,-0.1024 -0.1366,-0.1536 -0.0684,-0.0682 -0.1197,-0.1193 -0.1537,-0.1535l-0.3924 -0.3587 -0.9392 1.0413 0.2733 0.2561c0.0678,0.051 0.1363,0.1026 0.2047,0.1368 0.0683,0.0342 0.1536,0.051 0.2393,0.051 0.051,0 0.1361,-0.0342 0.2219,-0.0683 0.0852,-0.0511 0.1703,-0.0852 0.2388,-0.1362l0.1369 0.1362 -1.0246 1.1096 -0.1536 -0.1367c0.0341,-0.051 0.0852,-0.1362 0.1193,-0.2556 0.0343,-0.12 0.0685,-0.1884 0.0685,-0.2562 0,-0.0857 -0.0169,-0.1537 -0.0512,-0.2219 -0.0341,-0.0684 -0.1026,-0.1368 -0.1708,-0.2052l-0.2729 -0.2388 -0.7 0.7679c-0.0683,0.0857 -0.1194,0.1542 -0.1536,0.2051 -0.0343,0.0511 -0.0343,0.1194 -0.0343,0.1704 0,0.0515 0.0343,0.1026 0.0852,0.1708 0.0517,0.0512 0.1195,0.1368 0.2221,0.222 0.051,0.0342 0.1024,0.0852 0.1536,0.1368 0.0682,0.0511 0.1193,0.102 0.1708,0.1361 0.051,0.0344 0.1193,0.0858 0.1704,0.1027 0.0683,0.0343 0.1025,0.0343 0.1542,0.0343 0.1192,0 0.2727,-0.0343 0.4606,-0.1026 0.1878,-0.0684 0.3246,-0.102 0.4097,-0.1537l0.1369 0.1193 -0.8193 0.7854 -2.51 -2.304 0.1369 -0.1543c0.0343,0.0344 0.0852,0.0684 0.1536,0.12 0.0683,0.0511 0.1195,0.0678 0.1535,0.0852 0.0686,0.0168 0.1196,0.0342 0.1711,0.0168 0.051,-0.0168 0.085,-0.051 0.1362,-0.102l1.7245 -1.895c0.0344,-0.0515 0.0683,-0.0856 0.0852,-0.1367 0.0168,-0.051 0,-0.1026 -0.0342,-0.1708 -0.0167,-0.0512 -0.0511,-0.102 -0.1025,-0.1705 -0.0512,-0.0682 -0.0852,-0.1193 -0.1195,-0.1535l0.1367 -0.1536 2.3725 2.1678 -0.631 0.751z"/>
   <path class="fil0" d="M48.3274 14.8344c0.2051,-0.1362 0.3071,-0.2897 0.3414,-0.4608 0.0174,-0.1708 -0.0343,-0.3587 -0.1703,-0.5806l-0.1195 -0.1703 -1.2806 0.8194 0.1025 0.1703c0.1369,0.2051 0.2903,0.3419 0.4781,0.3754 0.1876,0.0517 0.4096,0 0.6484,-0.1535zm-1.3316 2.9194l0 0 -0.7511 -1.1781c0.1878,-0.3924 0.3246,-0.7342 0.4098,-0.9731 0.1026,-0.2561 0.205,-0.5632 0.3075,-0.9044l-0.0682 -0.12 -0.922 0.598c-0.0509,0.0336 -0.0852,0.0677 -0.1194,0.1194 -0.0173,0.0341 -0.0341,0.102 -0.0173,0.1702 0,0.0344 0.0173,0.0858 0.0515,0.1537 0.0344,0.0683 0.0512,0.12 0.0678,0.1709l-0.1703 0.1026 -1.0587 -1.6388 0.1709 -0.1025c0.0341,0.0343 0.0683,0.0851 0.1193,0.1537 0.0517,0.0682 0.0859,0.1024 0.1194,0.1193 0.0518,0.0342 0.12,0.0516 0.1541,0.0516 0.0513,0 0.1021,-0.0174 0.1537,-0.0516l2.1507 -1.3827c0.0515,-0.0342 0.0857,-0.0684 0.1198,-0.1026 0.0343,-0.0336 0.0343,-0.102 0.0169,-0.1704 -0.0169,-0.0515 -0.0343,-0.1194 -0.0683,-0.205 -0.0344,-0.0678 -0.0512,-0.1194 -0.0683,-0.1704l0.1708 -0.1026 1.1097 1.7073c0.2561,0.3922 0.3755,0.7168 0.3923,0.9897 0,0.2736 -0.1195,0.4954 -0.3582,0.6491 -0.2219,0.1368 -0.4271,0.1877 -0.6317,0.1536 -0.2051,-0.0342 -0.427,-0.1709 -0.6659,-0.3587 -0.0684,0.1708 -0.1367,0.3928 -0.2219,0.6316 -0.0852,0.2393 -0.1709,0.478 -0.2562,0.7343 -0.0341,0.085 -0.0509,0.1876 -0.0852,0.307 -0.0341,0.1368 -0.0341,0.222 -0.0174,0.3077 0.0174,0.0337 0.0343,0.0853 0.0518,0.1362 0.0168,0.0516 0.0341,0.1026 0.0509,0.1194l-0.1367 0.0858z"/>
   <path class="fil0" d="M48.0204 20.7411c-0.0685,-0.2052 -0.1195,-0.4096 -0.1195,-0.6148 -0.0175,-0.2046 0,-0.3754 0.0343,-0.5292l-0.2221 -0.1194 -0.0683 -0.2044 1.2458 -0.444 0.0683 0.2047c-0.1023,0.085 -0.2043,0.1876 -0.307,0.307 -0.1026,0.12 -0.1878,0.2393 -0.2562,0.3754 -0.0683,0.1369 -0.1194,0.2736 -0.1536,0.4272 -0.0343,0.1367 -0.0174,0.2902 0.0342,0.4607 0.0684,0.222 0.1877,0.3755 0.3244,0.4439 0.1364,0.0857 0.3073,0.1025 0.4608,0.0342 0.1368,-0.0511 0.222,-0.1362 0.2905,-0.2561 0.0509,-0.1362 0.0849,-0.3072 0.0849,-0.546 0,-0.1541 0,-0.2902 0,-0.427 0,-0.1195 0,-0.2389 0,-0.3583 0.0171,-0.2561 0.0854,-0.478 0.2221,-0.6489 0.1367,-0.1705 0.3071,-0.2903 0.5292,-0.3588 0.1367,-0.0511 0.2733,-0.0678 0.4096,-0.0511 0.1367,0.0175 0.2903,0.0684 0.4271,0.1369 0.1362,0.0682 0.2562,0.1877 0.3581,0.3414 0.1195,0.1535 0.2052,0.3244 0.2735,0.5122 0.0677,0.1876 0.102,0.3754 0.102,0.5633 0,0.1876 0,0.3414 -0.0168,0.4438l0.1878 0.102 0.0683 0.2052 -1.1608 0.4096 -0.0682 -0.2045c0.1024,-0.0857 0.2219,-0.1883 0.324,-0.3077 0.1023,-0.1026 0.1882,-0.222 0.2561,-0.324 0.0683,-0.12 0.1026,-0.222 0.1367,-0.3418 0.0169,-0.1194 0.0169,-0.2563 -0.0341,-0.3924 -0.0512,-0.1708 -0.1538,-0.307 -0.2904,-0.3754 -0.1362,-0.0858 -0.2729,-0.0858 -0.4266,-0.0516 -0.1367,0.0516 -0.2393,0.1368 -0.2902,0.2562 -0.0511,0.1194 -0.0853,0.307 -0.0853,0.529 0,0.1368 0,0.2735 0,0.4097 0,0.1368 0,0.2562 0,0.3761 -0.0173,0.2728 -0.0683,0.4948 -0.1876,0.6653 -0.1194,0.1709 -0.2904,0.3076 -0.5292,0.376 -0.1541,0.051 -0.3075,0.0677 -0.4612,0.0336 -0.1703,-0.0168 -0.3071,-0.0852 -0.4439,-0.1704 -0.1536,-0.1024 -0.273,-0.2218 -0.3923,-0.3754 -0.1537,-0.0857 -0.2562,-0.2903 -0.3244,-0.5122z"/>
   <path class="fil0" d="M49.1983 26.3399l-0.205 -2.0143 0.205 -0.0168c0.0169,0.0512 0.0169,0.1194 0.0337,0.2046 0.0175,0.0858 0.0343,0.1536 0.0516,0.1709 0.0343,0.0684 0.0685,0.1025 0.1194,0.1194 0.0341,0.0173 0.1026,0.0173 0.171,0.0173l2.5601 -0.2561c0.0685,0 0.1026,-0.0174 0.1542,-0.0516 0.0337,-0.0341 0.0678,-0.0678 0.0851,-0.1362 0.0169,-0.0343 0.0169,-0.1025 0.0343,-0.1877 0.0169,-0.0858 0.0169,-0.1536 0.0169,-0.2052l0.205 -0.0168 0.2047 2.0143 -0.2047 0.0169c-0.0173,-0.0511 -0.0341,-0.1194 -0.0515,-0.1878 -0.0169,-0.0684 -0.0343,-0.1362 -0.0678,-0.1878 -0.0343,-0.0682 -0.0683,-0.1024 -0.12,-0.1193 -0.0509,-0.0174 -0.102,-0.0174 -0.1704,-0.0174l-2.5607 0.2561c-0.0683,0 -0.1195,0.0174 -0.1536,0.0517 -0.0342,0.0342 -0.0685,0.0683 -0.0852,0.1362 -0.0174,0.0342 -0.0174,0.1026 -0.0342,0.1878 0,0.0856 0,0.1542 0,0.205l-0.1878 0.0168z"/>
   <path class="fil0" d="M51.4345 32.2124l0.017 -0.2046c0.1536,-0.0342 0.3411,-0.1025 0.5289,-0.1877 0.1878,-0.1025 0.2903,-0.1878 0.3246,-0.2903 0.0168,-0.0516 0.0343,-0.1194 0.0343,-0.2051 0.0167,-0.0852 0.0167,-0.1537 0.034,-0.2046l0.0169 -0.1193 -2.8336 -0.342c-0.0684,0 -0.1196,0 -0.1704,0.0174 -0.0515,0.0168 -0.0858,0.0511 -0.1199,0.1194 -0.0168,0.0342 -0.0343,0.1026 -0.0679,0.171 -0.0341,0.085 -0.0516,0.1535 -0.0516,0.2044l-0.2046 -0.0168 0.2389 -2.0143 0.1877 0.0168c0,0.0512 0,0.1194 0,0.2052 0,0.0852 0,0.1535 0.0174,0.1878 0.0168,0.0676 0.0509,0.1194 0.0852,0.1535 0.0342,0.0342 0.1026,0.051 0.1535,0.051l2.8511 0.3414 0.0169 -0.1194c0.0174,-0.051 0.0174,-0.1194 0.0174,-0.2046 0,-0.0856 0,-0.1368 0,-0.205 0,-0.1026 -0.0857,-0.222 -0.2562,-0.3587 -0.1708,-0.1362 -0.3076,-0.2388 -0.4614,-0.3072l0.0175 -0.2046 1.0413 0.1194 -0.4096 3.4996 -1.0072 -0.1026z"/>
   <path class="fil0" d="M50.2565 38.5113c0.017,-0.0509 0.017,-0.1194 0.0342,-0.1702 0,-0.0516 0,-0.1026 -0.0172,-0.1536 -0.017,-0.0858 -0.0338,-0.171 -0.068,-0.2393 -0.0341,-0.0685 -0.0858,-0.1537 -0.1367,-0.2388 -0.1193,-0.1537 -0.2387,-0.3246 -0.3754,-0.5124 -0.1368,-0.1876 -0.2904,-0.3754 -0.4439,-0.5974 -0.1027,-0.1368 -0.1879,-0.2388 -0.2562,-0.2902 -0.0684,-0.0511 -0.1878,-0.1026 -0.3588,-0.1704l-0.4774 -0.1877c-0.0516,-0.0174 -0.12,-0.0343 -0.1709,-0.0174 -0.051,0 -0.1027,0.0342 -0.1536,0.0851 -0.0175,0.0174 -0.0512,0.0684 -0.1195,0.1543 -0.0515,0.0851 -0.0858,0.1362 -0.1026,0.1876l-0.1876 -0.0682 0.7342 -1.8949 0.1877 0.0682c-0.0174,0.0512 -0.0343,0.1194 -0.0516,0.2046 -0.0169,0.0852 -0.0341,0.1536 -0.0341,0.1878 0,0.0683 0.0172,0.1194 0.0514,0.1536 0.0343,0.0341 0.0852,0.0682 0.1362,0.0857l0.5974 0.2219c0.0518,0.017 0.1026,0.0343 0.1369,0.0511 0.0342,0.0168 0.0684,0.0168 0.1025,0.0168 0.0343,0 0.0852,0 0.1368,-0.0168 0.0511,-0.0168 0.1363,-0.0168 0.2219,-0.0341 0.2556,-0.0344 0.5118,-0.0685 0.7511,-0.1194 0.2388,-0.0344 0.4609,-0.0853 0.6658,-0.1195 0.1021,-0.0175 0.2047,-0.0517 0.273,-0.0857 0.0683,-0.0342 0.1368,-0.0679 0.1877,-0.1194 0.0341,-0.0342 0.0853,-0.0852 0.1194,-0.1368 0.0342,-0.0511 0.0683,-0.102 0.0851,-0.1537l0.1878 0.0684 -0.751 1.9458 -0.1877 -0.0677c0.0682,-0.1878 0.1025,-0.3077 0.1025,-0.3754 0,-0.0684 -0.0169,-0.12 -0.051,-0.12 -0.0174,0 -0.0516,0 -0.12,0 -0.0678,0 -0.1535,0.0174 -0.2898,0.0342 -0.1199,0.0174 -0.2902,0.0342 -0.5121,0.0683 -0.2221,0.0343 -0.4782,0.0852 -0.7853,0.1369 0.3583,0.4948 0.6143,0.8194 0.7679,1.007 0.1541,0.1878 0.2393,0.2904 0.2901,0.3072 0.0518,0.0174 0.1026,0 0.171,-0.0511 0.0511,-0.0516 0.1195,-0.1536 0.1703,-0.3076l0.1878 0.0682 -0.4774 1.2633 -0.171 -0.0684z"/>
   <path class="fil0" d="M39.229 37.1121c-0.6149,-1.4511 -1.3316,-2.7828 -2.1001,-3.9777 -0.8194,-1.2465 -1.6899,-2.3388 -2.6286,-3.2264 -1.007,-0.9558 -2.0827,-1.7073 -3.1923,-2.2189 -0.7342,-0.3419 -1.4855,-0.5805 -2.2537,-0.6999l0 -0.871c0,-0.8194 -0.6653,-1.4847 -1.4848,-1.4847 -0.8194,0 -1.4852,0.6653 -1.4852,1.4847l0 0.871c-0.7685,0.1367 -1.5195,0.3754 -2.2362,0.6999 -1.1098,0.5116 -2.1853,1.2631 -3.1925,2.2189 -0.9388,0.8877 -1.8266,1.9799 -2.629,3.2264 -0.7679,1.1782 -1.4854,2.5266 -2.0995,3.9777 -0.3072,0.7335 0.0168,1.5703 0.751,1.8774 0.7342,0.3071 1.5704,-0.0342 1.8774,-0.751 1.1273,-2.6291 2.5267,-4.7969 4.0802,-6.2648 1.1096,-1.0587 2.2704,-1.7582 3.4654,-2.0657l0 2.3386c0,0.8026 -0.5975,1.1098 -0.8703,1.2802 -0.0859,0.0517 -0.2736,0.171 -0.3588,0.222 -0.5466,0.3587 -1.1781,0.9051 -1.7756,1.6729 -1.0581,1.3659 -1.8945,3.2267 -2.3382,5.2409 -0.171,0.7684 0.3239,1.5363 1.0923,1.7072 0.7684,0.1708 1.5361,-0.3246 1.7071,-1.0924 0.3413,-1.6047 0.9899,-3.0556 1.7925,-4.097 0.4096,-0.5296 1.2458,-1.4169 2.2193,-1.4169 0.9732,0 1.8094,0.8873 2.219,1.4169 0.8024,1.0414 1.4508,2.4923 1.7922,4.097 0.171,0.7678 0.9394,1.2632 1.7073,1.0924 0.7684,-0.1708 1.2632,-0.922 1.093,-1.7072 -0.4441,-2.0142 -1.2633,-3.875 -2.3389,-5.2409 -0.5974,-0.751 -1.229,-1.3142 -1.7756,-1.6729 -0.0852,-0.051 -0.2729,-0.1703 -0.3587,-0.222 -0.2728,-0.1703 -0.8535,-0.4775 -0.8535,-1.2802l0 -2.3386c1.1954,0.3075 2.3388,1.007 3.4658,2.0657 1.5529,1.4679 2.9531,3.6357 4.0796,6.2648 0.307,0.7342 1.1607,1.0581 1.8782,0.751 0.7335,-0.3071 1.0749,-1.1439 0.751,-1.8774zm-10.3793 -23.7798l0 0c0,-0.8194 0.6659,-1.4852 1.4853,-1.4678 0.8195,0 1.4851,0.6653 1.4851,1.4845l0 1.9125c1.5532,0.3581 3.1241,0.9388 4.6945,1.7239 1.7756,0.9046 3.5337,2.0827 5.07,3.397 0.5975,0.5122 0.6659,1.4169 0.1536,2.0143 -0.5122,0.598 -1.4169,0.666 -2.0143,0.1542 -2.424,-2.0658 -5.2235,-3.6021 -7.9038,-4.3362l0 3.2948c1.8608,0.5976 3.6874,1.6215 5.4286,3.0726 1.9628,1.6387 3.8068,3.7386 5.4455,6.2647 0.1704,0.2394 0.2387,0.5122 0.2387,0.7857 0,0.4775 -0.2218,0.9388 -0.6484,1.2117 -0.6659,0.4271 -1.5534,0.2393 -1.98,-0.4264 -1.4852,-2.2879 -3.124,-4.1829 -4.8655,-5.6164 -1.7755,-1.4684 -3.7381,-2.4756 -5.4626,-2.8337 -0.768,-0.1709 -1.1267,-0.871 -1.1267,-1.3658l0 -9.2695zm-4.0286 -1.4852l0 0c0.8194,0 1.4854,0.6658 1.4511,1.4684l0 9.2695c0,0.4948 -0.3414,1.1949 -1.1098,1.3652 -1.7239,0.3587 -3.6872,1.3659 -5.4626,2.8337 -1.7415,1.4341 -3.3803,3.329 -4.8654,5.6164 -0.4266,0.6658 -1.3143,0.8535 -1.9801,0.427 -0.4099,-0.2903 -0.6487,-0.7342 -0.6487,-1.2122 0,-0.2729 0.0853,-0.5466 0.2388,-0.7853 1.6561,-2.5434 3.4829,-4.6433 5.446,-6.2647 1.7582,-1.4342 3.5848,-2.4581 5.4455,-3.073l0 -3.2945c-2.6973,0.7338 -5.4969,2.2705 -7.9035,4.3358 -0.598,0.5123 -1.5027,0.4439 -2.0149,-0.1535 -0.5118,-0.5975 -0.4434,-1.5022 0.1541,-2.0144 1.5362,-1.3315 3.2945,-2.4923 5.0699,-3.397 1.5704,-0.7853 3.1408,-1.3659 4.6944,-1.7246l0 -1.9117c0,-0.8194 0.6658,-1.4852 1.4852,-1.4852zm21.5094 15.7394l0 0c0,10.3617 -8.3991,18.7607 -18.7609,18.7607 -10.3623,0 -18.7607,-8.399 -18.7607,-18.7607 0,-10.3618 8.3984,-18.7609 18.7607,-18.7609 10.3618,0 18.7609,8.3991 18.7609,18.7609z"/>
   <path class="fil1" d="M71.2709 48.1055c0.1365,-0.2047 0.2388,-0.4098 0.273,-0.6144 0.051,-0.205 0.0683,-0.4096 0.0683,-0.5805 0,-0.2389 -0.0341,-0.478 -0.0857,-0.7169 -0.051,-0.2394 -0.1536,-0.4612 -0.2897,-0.6316 -0.1368,-0.1878 -0.3419,-0.3413 -0.564,-0.4439 -0.2388,-0.1026 -0.5289,-0.1536 -0.8702,-0.1536l-0.8705 0 0 3.875 0.6317 0c0.4438,0 0.8019,-0.0684 1.0755,-0.2051 0.2728,-0.1363 0.4774,-0.3071 0.6315,-0.529zm1.8777 -1.4853l0 0c0,0.4613 -0.0853,0.8709 -0.273,1.2121 -0.1709,0.3582 -0.4271,0.6485 -0.7516,0.8879 -0.3071,0.2388 -0.6652,0.4096 -1.0412,0.5117 -0.3755,0.1026 -0.7679,0.1537 -1.195,0.1537l-0.9898 0 0 2.6632c0,0.1536 0.0167,0.2729 0.0684,0.3755 0.0508,0.1026 0.1361,0.1878 0.2895,0.2562 0.0684,0.0343 0.2053,0.051 0.3931,0.0851 0.1876,0.0342 0.3586,0.0342 0.5289,0.0517l0 0.4438 -3.7382 0 0 -0.4613c0.102,0 0.2387,-0.0167 0.4266,-0.051 0.1878,-0.0174 0.3071,-0.0515 0.3927,-0.0852 0.1195,-0.0515 0.2047,-0.1367 0.2562,-0.2393 0.0512,-0.1026 0.0852,-0.2388 0.0852,-0.3923l0 -6.3506c0,-0.1368 -0.0174,-0.2729 -0.0683,-0.3929 -0.0343,-0.1194 -0.1367,-0.2045 -0.2904,-0.2555 -0.1535,-0.0517 -0.307,-0.0858 -0.4606,-0.12 -0.1536,-0.0169 -0.2902,-0.0343 -0.3929,-0.0511l0 -0.4439 4.0119 0c0.8194,0 1.4852,0.2051 1.98,0.5974 0.5123,0.4097 0.7685,0.9387 0.7685,1.6047z"/>
   <path class="fil1" d="M81.5644 50.6488l-0.1709 2.5949 -7.2889 0 0 -0.444c0.1195,0 0.2899,-0.0167 0.4951,-0.051 0.2044,-0.0341 0.3411,-0.0515 0.4095,-0.0852 0.1369,-0.0682 0.2221,-0.1367 0.2728,-0.2393 0.0518,-0.1026 0.0684,-0.222 0.0684,-0.3755l0 -6.3332c0,-0.1368 -0.0167,-0.2562 -0.0684,-0.3588 -0.0508,-0.1024 -0.136,-0.1877 -0.2901,-0.2561 -0.1195,-0.051 -0.2556,-0.1021 -0.4434,-0.1362 -0.1879,-0.0342 -0.342,-0.0684 -0.444,-0.0684l0 -0.4438 6.794 0 0 2.1169 -0.4607 0c-0.0859,-0.3072 -0.2562,-0.6318 -0.5292,-0.9731 -0.2735,-0.3418 -0.5297,-0.5296 -0.7858,-0.5632 -0.1361,-0.0175 -0.2897,-0.0344 -0.4607,-0.0344 -0.1709,0 -0.3755,-0.0173 -0.6143,-0.0173l-1.3831 0 0 3.4654 0.9903 0c0.3245,0 0.5464,-0.0343 0.6999,-0.0852 0.1363,-0.0511 0.273,-0.1537 0.3925,-0.3071 0.0856,-0.1201 0.1708,-0.2735 0.2218,-0.4781 0.0683,-0.2052 0.1026,-0.3928 0.1198,-0.5633l0.4608 0 0 3.448 -0.4608 0c-0.0172,-0.2046 -0.0682,-0.4097 -0.1367,-0.6317 -0.0683,-0.222 -0.1536,-0.3755 -0.2219,-0.4775 -0.1367,-0.1708 -0.2729,-0.2561 -0.4439,-0.3245 -0.171,-0.0516 -0.3753,-0.0683 -0.6484,-0.0683l-0.9903 0 0 2.6291c0,0.2561 0.0168,0.4775 0.0508,0.6142 0.0344,0.1537 0.1027,0.273 0.2221,0.3414 0.1025,0.0857 0.2562,0.1368 0.4439,0.1537 0.1877,0.0174 0.4439,0.0341 0.7853,0.0341l0.5295 0c0.2215,0 0.4096,0 0.5635,-0.0167 0.1535,-0.0174 0.3239,-0.0512 0.4773,-0.0853 0.1709,-0.0341 0.2902,-0.1025 0.3588,-0.1708 0.1878,-0.2046 0.3928,-0.495 0.5975,-0.9046 0.205,-0.4097 0.3413,-0.7 0.3928,-0.8879l0.4948 0 0 -0.0173z"/>
   <path class="fil1" d="M90.6119 53.2437l-2.4751 0c-0.4779,-0.7342 -1.007,-1.4678 -1.5877,-2.1852 -0.5806,-0.7168 -1.1948,-1.4336 -1.8266,-2.1163l-0.1536 0 0 3.0557c0,0.1361 0.0341,0.2561 0.0682,0.3581 0.0513,0.1026 0.1364,0.1877 0.2731,0.2562 0.0682,0.0342 0.1877,0.0683 0.3588,0.1026 0.1701,0.0341 0.324,0.0683 0.4432,0.0683l0 0.4439 -3.6355 0 0 -0.4272c0.1025,0 0.2386,-0.0167 0.4096,-0.0342 0.1877,-0.0168 0.3071,-0.0342 0.3922,-0.0682 0.1201,-0.0511 0.2221,-0.1364 0.2735,-0.2388 0.0509,-0.1026 0.0852,-0.2389 0.0852,-0.3756l0 -6.3505c0,-0.1363 -0.0174,-0.2563 -0.0683,-0.3583 -0.0511,-0.1024 -0.1369,-0.1877 -0.2904,-0.2561 -0.1192,-0.0516 -0.2387,-0.1026 -0.3922,-0.1368 -0.1536,-0.0342 -0.2904,-0.0683 -0.4096,-0.0683l0 -0.478 3.6355 0 0 0.4438c-0.1192,0 -0.2557,0.0174 -0.4265,0.0517 -0.1708,0.0342 -0.2902,0.0682 -0.3754,0.1026 -0.1368,0.051 -0.2393,0.1361 -0.2731,0.2388 -0.0514,0.1194 -0.0682,0.2388 -0.0682,0.3754l0 3.0388 0.1195 0c0.3753,-0.3077 0.7341,-0.6491 1.0922,-0.9904 0.3587,-0.3414 0.6832,-0.6827 0.9731,-1.024 0.3245,-0.376 0.5638,-0.683 0.7172,-0.905 0.1537,-0.222 0.2221,-0.4266 0.2221,-0.5975 0,-0.0683 -0.0342,-0.1193 -0.12,-0.1536 -0.0677,-0.0342 -0.1704,-0.0683 -0.2556,-0.1025 -0.1199,-0.0169 -0.2219,-0.0343 -0.3076,-0.0511 -0.0852,0 -0.1704,-0.0174 -0.2219,-0.0174l0 -0.4096 3.2949 0 0 0.4438c-0.0175,0 -0.0344,0 -0.0852,0 -0.0341,0 -0.0858,0 -0.1367,0.0174 -0.0512,0 -0.1195,0.0169 -0.171,0.0169 -0.0511,0.0174 -0.1363,0.0174 -0.2221,0.0342 -0.1361,0.0342 -0.2895,0.0858 -0.4437,0.1536 -0.1538,0.0683 -0.2898,0.171 -0.3756,0.2734 -0.4264,0.4782 -0.8703,0.9899 -1.331,1.5021 -0.4613,0.5123 -0.922,0.9905 -1.3831,1.4169 0.6315,0.7168 1.1438,1.3142 1.5535,1.8267 0.4096,0.5121 0.8536,1.0587 1.3142,1.6387 0.1708,0.2219 0.3587,0.4097 0.5296,0.529 0.1704,0.1368 0.3239,0.2394 0.4607,0.3078 0.1026,0.051 0.2389,0.102 0.3929,0.1194 0.1537,0.0341 0.2897,0.0509 0.4098,0.0509l0 0.4781 0.0168 0z"/>
   <path class="fil1" d="M95.0333 53.2437l-3.9776 0 0 -0.444c0.1195,0 0.2729,-0.0167 0.4782,-0.0342 0.2044,-0.0168 0.358,-0.0342 0.4438,-0.0682 0.1363,-0.0511 0.2389,-0.1194 0.2903,-0.222 0.0677,-0.0852 0.0852,-0.2214 0.0852,-0.3924l0 -6.3673c0,-0.1536 -0.0175,-0.2562 -0.0684,-0.3588 -0.0511,-0.1024 -0.1537,-0.1703 -0.3244,-0.2387 -0.1195,-0.0516 -0.273,-0.1026 -0.4608,-0.1368 -0.1878,-0.051 -0.3414,-0.0683 -0.4607,-0.0852l0 -0.4612 3.9769 0 0 0.4438c-0.1361,0 -0.2897,0.0174 -0.4608,0.0517 -0.1709,0.0168 -0.3411,0.051 -0.4607,0.1026 -0.1541,0.051 -0.2561,0.1361 -0.3244,0.2388 -0.0512,0.1194 -0.0852,0.2388 -0.0852,0.3754l0 6.3674c0,0.1367 0.0341,0.2561 0.0852,0.3587 0.0683,0.102 0.1703,0.1876 0.3069,0.2561 0.0853,0.0342 0.222,0.0679 0.4272,0.102 0.2047,0.0342 0.3583,0.0683 0.4948,0.0683l0 0.444 0.0343 0z"/>
   <path class="fil1" d="M104.8829 44.8788c-0.1195,0 -0.2899,0.0343 -0.5293,0.1026 -0.2386,0.0684 -0.4096,0.1368 -0.5122,0.1877 -0.1535,0.1027 -0.2555,0.3071 -0.307,0.5975 -0.051,0.2902 -0.0852,0.6659 -0.0852,1.1096l0 6.4527 -0.5464 0 -5.3429 -7.2036 0 4.5408c0,0.5124 0.0343,0.9046 0.1021,1.1781 0.0682,0.2731 0.1541,0.4608 0.2902,0.5801 0.1026,0.0852 0.2903,0.171 0.5806,0.2562 0.3071,0.0851 0.4948,0.1193 0.5974,0.1193l0 0.444 -3.6019 0 0 -0.444c0.1192,0 0.2901,-0.051 0.5631,-0.1193 0.2562,-0.0683 0.4272,-0.1368 0.4955,-0.2051 0.1363,-0.1194 0.2388,-0.2898 0.2898,-0.5291 0.0515,-0.2388 0.0858,-0.6484 0.0858,-1.2117l0 -4.3363c0,-0.1877 -0.0344,-0.3754 -0.1027,-0.5801 -0.0683,-0.1876 -0.1535,-0.3419 -0.2561,-0.4439 -0.1537,-0.1368 -0.3414,-0.2561 -0.5975,-0.3587 -0.2561,-0.1025 -0.4607,-0.1536 -0.6147,-0.1536l0 -0.427 2.5095 0 4.9506 6.7092 0 -4.1827c0,-0.5116 -0.0344,-0.9046 -0.1026,-1.1775 -0.0684,-0.2734 -0.1537,-0.4613 -0.2903,-0.5466 -0.1195,-0.085 -0.307,-0.1535 -0.5632,-0.2219 -0.2562,-0.0683 -0.4608,-0.1194 -0.5974,-0.1194l0 -0.4612 3.5847 0 0 0.4438z"/>
   <path class="fil1" d="M114.118 49.71c-0.102,0.0174 -0.2388,0.0343 -0.4096,0.0517 -0.1704,0.0336 -0.3071,0.0677 -0.4098,0.1194 -0.1192,0.0683 -0.2046,0.1536 -0.2555,0.2561 -0.0515,0.1021 -0.0684,0.2388 -0.0684,0.3923l0 0.6831c0,0.4949 0,0.8362 0,1.0071 0,0.1704 0.017,0.3072 0.017,0.4266 -0.5461,0.2561 -1.0925,0.4439 -1.6389,0.5806 -0.5458,0.1362 -1.0755,0.2046 -1.6045,0.2046 -0.5635,0 -1.1097,-0.1026 -1.6215,-0.3246 -0.5123,-0.2046 -0.9736,-0.5116 -1.3659,-0.9046 -0.3929,-0.3922 -0.6999,-0.8704 -0.9387,-1.4336 -0.2393,-0.5639 -0.3419,-1.1949 -0.3419,-1.8949 0,-0.6659 0.1026,-1.2975 0.3245,-1.8607 0.2219,-0.5632 0.5291,-1.0756 0.9388,-1.4852 0.3928,-0.4097 0.8535,-0.7341 1.4,-0.973 0.5464,-0.2393 1.1264,-0.3413 1.7413,-0.3413 0.4948,0 0.922,0.0677 1.2974,0.1876 0.3582,0.1194 0.6827,0.2731 0.9731,0.4434l0.2563 -0.4265 0.4948 0 0.0509 3.073 -0.5117 0c-0.0857,-0.3418 -0.1876,-0.6831 -0.3245,-1.0071 -0.1193,-0.3245 -0.2901,-0.6315 -0.4948,-0.8878 -0.2051,-0.2562 -0.444,-0.4612 -0.7341,-0.6316 -0.2905,-0.1536 -0.6318,-0.2394 -1.0415,-0.2394 -0.4438,0 -0.8367,0.0858 -1.1781,0.2734 -0.3412,0.1704 -0.6485,0.444 -0.9046,0.8021 -0.2561,0.3413 -0.4437,0.7685 -0.5806,1.2807 -0.1361,0.5116 -0.2043,1.0923 -0.2043,1.724 0,0.5632 0.0682,1.0923 0.2043,1.5878 0.137,0.4948 0.3246,0.9213 0.5806,1.2801 0.2562,0.3754 0.5807,0.6658 0.9563,0.8704 0.3922,0.2051 0.8193,0.3245 1.3142,0.3245 0.3589,0 0.7,-0.051 0.9898,-0.1708 0.2903,-0.102 0.5122,-0.222 0.6317,-0.3583 0.0342,-0.2218 0.0516,-0.427 0.0516,-0.649 0,-0.2219 0,-0.4096 0,-0.5633l0 -0.478c0,-0.1703 -0.0174,-0.324 -0.0683,-0.4608 -0.051,-0.1367 -0.1368,-0.2387 -0.2904,-0.2903 -0.1362,-0.0683 -0.3245,-0.1025 -0.5633,-0.1361 -0.2387,-0.0343 -0.4097,-0.0517 -0.5464,-0.0517l0 -0.4438 3.8581 0 0 0.4438 0.0168 0z"/>
   <path class="fil1" d="M126.7676 44.8788c-0.1195,0 -0.2903,0.0343 -0.5116,0.0684 -0.2219,0.0515 -0.4097,0.1194 -0.5465,0.2052 -0.1369,0.085 -0.2395,0.2902 -0.2903,0.58 -0.0512,0.3076 -0.0852,0.6658 -0.0852,1.0929l0 3.8235c0,0.4954 -0.1027,0.9051 -0.3071,1.2633 -0.2052,0.3587 -0.4782,0.6489 -0.8026,0.8877 -0.3245,0.222 -0.6659,0.393 -1.0412,0.478 -0.3588,0.1026 -0.7001,0.1538 -1.0415,0.1538 -0.5291,0 -1.0071,-0.0684 -1.4169,-0.2046 -0.4097,-0.1368 -0.7685,-0.3246 -1.0412,-0.5634 -0.2729,-0.2393 -0.4948,-0.5122 -0.6317,-0.8026 -0.1367,-0.307 -0.2045,-0.6148 -0.2045,-0.9561l0 -5.2066c0,-0.1362 -0.0174,-0.2556 -0.0685,-0.3582 -0.0516,-0.1026 -0.1368,-0.1876 -0.2902,-0.2734 -0.1026,-0.0511 -0.2393,-0.102 -0.3927,-0.1362 -0.1539,-0.0343 -0.2899,-0.0517 -0.3926,-0.0684l0 -0.427 3.6358 0 0 0.4438c-0.1194,0 -0.2555,0.0174 -0.4265,0.0517 -0.1709,0.0342 -0.307,0.0682 -0.3756,0.0851 -0.1367,0.0511 -0.2393,0.1369 -0.2727,0.2389 -0.0517,0.1198 -0.0685,0.2393 -0.0685,0.376l0 4.848c0,0.2387 0.0169,0.478 0.0852,0.7341 0.0512,0.2557 0.1538,0.4949 0.3073,0.7169 0.1708,0.2219 0.3753,0.4096 0.6658,0.5632 0.2735,0.1368 0.6658,0.2221 1.1438,0.2221 0.4608,0 0.8362,-0.0684 1.1439,-0.2221 0.3071,-0.1536 0.5459,-0.3413 0.7337,-0.5805 0.1709,-0.222 0.2903,-0.4607 0.3587,-0.6995 0.0684,-0.2393 0.1025,-0.4954 0.1025,-0.7341l0 -3.6022c0,-0.4608 -0.0341,-0.8362 -0.1025,-1.1264 -0.0683,-0.2904 -0.1708,-0.478 -0.2902,-0.5807 -0.1364,-0.1025 -0.3414,-0.1877 -0.5975,-0.2387 -0.2562,-0.0517 -0.4439,-0.0858 -0.58,-0.1026l0 -0.3928 3.6015 0 0 0.4438z"/>
   <path class="fil1" d="M136.6687 44.8788c-0.1193,0 -0.2902,0.0343 -0.5292,0.1026 -0.2388,0.0684 -0.4095,0.1368 -0.5121,0.1877 -0.1535,0.1027 -0.2561,0.3071 -0.307,0.5975 -0.0512,0.2902 -0.0852,0.6659 -0.0852,1.1096l0 6.4527 -0.5466 0 -5.3428 -7.2036 0 4.5408c0,0.5124 0.0335,0.9046 0.1021,1.1781 0.0682,0.2731 0.1708,0.4608 0.2901,0.5801 0.0852,0.0852 0.2905,0.171 0.5806,0.2562 0.2899,0.0851 0.4948,0.1193 0.58,0.1193l0 0.444 -3.6013 0 0 -0.444c0.1193,0 0.2895,-0.051 0.5631,-0.1193 0.2564,-0.0683 0.4266,-0.1368 0.495,-0.2051 0.1367,-0.1194 0.2387,-0.2898 0.2902,-0.5291 0.051,-0.2388 0.0851,-0.6484 0.0851,-1.2117l0 -4.3363c0,-0.1877 -0.0342,-0.3754 -0.1024,-0.5801 -0.0685,-0.1876 -0.1536,-0.3419 -0.2562,-0.4439 -0.1538,-0.1368 -0.3413,-0.2561 -0.5974,-0.3587 -0.2562,-0.1025 -0.4609,-0.1536 -0.6144,-0.1536l0 -0.427 2.5092 0 4.9507 6.7092 0 -4.1827c0,-0.5116 -0.0344,-0.9046 -0.1027,-1.1775 -0.0677,-0.2734 -0.1536,-0.4613 -0.2898,-0.5466 -0.1199,-0.085 -0.3076,-0.1535 -0.5633,-0.2219 -0.2562,-0.0683 -0.4611,-0.1194 -0.5974,-0.1194l0 -0.4612 3.5849 0 0 0.4438 0.0167 0z"/>
   <path class="fil1" d="M140.9878 53.2437l-3.9777 0 0 -0.444c0.12,0 0.2735,-0.0167 0.4781,-0.0342 0.205,-0.0168 0.3586,-0.0342 0.4438,-0.0682 0.1369,-0.0511 0.2393,-0.1194 0.3072,-0.222 0.0683,-0.0852 0.0856,-0.2214 0.0856,-0.3924l0 -6.3673c0,-0.1536 -0.0173,-0.2562 -0.0684,-0.3588 -0.0509,-0.1024 -0.1535,-0.1703 -0.3244,-0.2387 -0.1193,-0.0516 -0.273,-0.1026 -0.4607,-0.1368 -0.1877,-0.051 -0.3413,-0.0683 -0.4613,-0.0852l0 -0.4612 3.9777 0 0 0.4438c-0.1365,0 -0.2905,0.0174 -0.4609,0.0517 -0.1878,0.0168 -0.3413,0.051 -0.4606,0.1026 -0.1544,0.051 -0.2562,0.1361 -0.3246,0.2388 -0.0516,0.1194 -0.0853,0.2388 -0.0853,0.3754l0 6.3674c0,0.1367 0.0338,0.2561 0.0853,0.3587 0.0684,0.102 0.1702,0.1876 0.3072,0.2561 0.0851,0.0342 0.2217,0.0679 0.427,0.102 0.2045,0.0342 0.3581,0.0683 0.4948,0.0683l0 0.444 0.017 0z"/>
   <path class="fil1" d="M150.2743 44.8788c-0.1019,0 -0.2395,0.0343 -0.3931,0.0684 -0.1536,0.0342 -0.2726,0.0858 -0.3743,0.1536 -0.1378,0.0857 -0.2569,0.2051 -0.3415,0.3419 -0.0862,0.1362 -0.1723,0.3072 -0.257,0.4948 -0.2726,0.6485 -0.7,1.6899 -1.2454,3.0725 -0.5638,1.4001 -1.1276,2.8342 -1.7074,4.3532l-0.5122 0c-0.5967,-1.6046 -1.1607,-3.1407 -1.7246,-4.6261 -0.546,-1.4852 -0.9214,-2.4923 -1.1266,-3.0045 -0.051,-0.1194 -0.1193,-0.2388 -0.2045,-0.3413 -0.0851,-0.1027 -0.1878,-0.1878 -0.3244,-0.273 -0.1027,-0.0683 -0.2388,-0.1195 -0.3757,-0.1536 -0.1366,-0.0342 -0.2561,-0.0516 -0.3753,-0.0684l0 -0.4612 3.6362 0 0 0.4438c-0.307,0.0174 -0.5639,0.0517 -0.7849,0.0858 -0.2051,0.051 -0.3242,0.1194 -0.3242,0.2388 0,0.0511 0,0.1025 0.0158,0.1708 0.0171,0.0684 0.0345,0.1195 0.0345,0.1537 0.1535,0.4096 0.393,1.0581 0.7518,1.9801 0.3414,0.9219 0.8364,2.2194 1.4677,3.9093 0.3071,-0.7685 0.683,-1.673 1.092,-2.7143 0.4103,-1.0414 0.6829,-1.7582 0.8191,-2.1511 0.1378,-0.3756 0.2225,-0.6317 0.2397,-0.7853 0.0173,-0.1362 0.0345,-0.2561 0.0345,-0.3582 0,-0.1026 -0.0345,-0.171 -0.1205,-0.2394 -0.0846,-0.0683 -0.2038,-0.1193 -0.3401,-0.1536 -0.1378,-0.051 -0.2741,-0.0683 -0.4103,-0.1025 -0.1364,-0.0169 -0.2898,-0.0343 -0.4263,-0.0511l0 -0.427 3.2771 0 0 0.4438z"/>
   <path class="fil1" d="M158.0078 50.6488l-0.1708 2.5949 -7.2901 0 0 -0.444c0.1206,0 0.2912,-0.0167 0.495,-0.051 0.2051,-0.0341 0.3429,-0.0515 0.4104,-0.0852 0.1362,-0.0682 0.2224,-0.1367 0.2725,-0.2393 0.0516,-0.1026 0.086,-0.222 0.086,-0.3755l0 -6.3332c0,-0.1368 -0.0172,-0.2562 -0.0687,-0.3588 -0.0504,-0.1024 -0.1364,-0.1877 -0.2898,-0.2561 -0.1191,-0.051 -0.2569,-0.1021 -0.4448,-0.1362 -0.1865,-0.0342 -0.3401,-0.0684 -0.4434,-0.0684l0 -0.4438 6.7951 0 0 2.1169 -0.4607 0c-0.086,-0.3072 -0.2569,-0.6318 -0.5308,-0.9731 -0.2725,-0.3418 -0.5453,-0.5296 -0.7849,-0.5632 -0.1192,-0.0175 -0.2726,-0.0344 -0.4607,-0.0344 -0.1706,0 -0.3758,-0.0173 -0.5968,-0.0173l-1.3831 0 0 3.4654 0.9901 0c0.3243,0 0.5467,-0.0343 0.7001,-0.0852 0.1363,-0.0511 0.2726,-0.1537 0.393,-0.3071 0.0847,-0.1201 0.1694,-0.2735 0.221,-0.4781 0.0689,-0.2052 0.102,-0.3928 0.1364,-0.5633l0.462 0 0 3.448 -0.4963 0c-0.0158,-0.2046 -0.0675,-0.4097 -0.1364,-0.6317 -0.0675,-0.222 -0.1536,-0.3755 -0.221,-0.4775 -0.1378,-0.1708 -0.2739,-0.2561 -0.4448,-0.3245 -0.1706,-0.0516 -0.3745,-0.0683 -0.6485,-0.0683l-0.9901 0 0 2.6291c0,0.2561 0.0173,0.4775 0.0518,0.6142 0.0329,0.1537 0.1018,0.273 0.221,0.3414 0.1032,0.0857 0.2567,0.1368 0.4448,0.1537 0.1879,0.0174 0.4432,0.0341 0.7848,0.0341l0.5295 0c0.2209,0 0.4089,0 0.5638,-0.0167 0.1535,-0.0174 0.3228,-0.0512 0.4778,-0.0853 0.1706,-0.0341 0.2898,-0.1025 0.3588,-0.1708 0.1864,-0.2046 0.3916,-0.495 0.5968,-0.9046 0.2051,-0.4097 0.3415,-0.7 0.393,-0.8879l0.4778 0 0 -0.0173z"/>
   <path class="fil1" d="M164.2376 46.6887c0,-0.5292 -0.1521,-0.9562 -0.4605,-1.2634 -0.3072,-0.3071 -0.7504,-0.4607 -1.3144,-0.4607l-1.0587 0 0 3.7724 0.8205 0c0.5797,0 1.0575,-0.1878 1.4335,-0.5465 0.393,-0.3754 0.5795,-0.8704 0.5795,-1.5019zm3.2613 6.5551l0 0 -2.3904 0c-0.5294,-0.8194 -0.9899,-1.5195 -1.4161,-2.1169 -0.4276,-0.5974 -0.8882,-1.2117 -1.3832,-1.8432l-0.9052 0 0 2.7821c0,0.1367 0.0171,0.2734 0.0688,0.376 0.0516,0.102 0.1362,0.1877 0.2898,0.2557 0.0688,0.0341 0.2051,0.0515 0.393,0.0857 0.1879,0.0167 0.3415,0.0342 0.4607,0.0511l0 0.4437 -3.6875 0 0 -0.478c0.1033,0 0.2397,-0.0167 0.4276,-0.051 0.1879,-0.0174 0.307,-0.0515 0.3918,-0.0852 0.1191,-0.0515 0.2051,-0.1367 0.2569,-0.2393 0.0502,-0.1026 0.0846,-0.2388 0.0846,-0.3923l0 -6.3673c0,-0.1368 -0.0173,-0.2734 -0.0675,-0.3928 -0.0345,-0.1194 -0.1364,-0.2052 -0.2898,-0.2563 -0.1033,-0.0342 -0.2396,-0.0683 -0.393,-0.1025 -0.1708,-0.0343 -0.3072,-0.0511 -0.4105,-0.0511l0 -0.427 4.0634 0c0.3759,0 0.7173,0.0342 1.0417,0.1199 0.3241,0.0683 0.6312,0.2045 0.8866,0.3755 0.2568,0.1703 0.462,0.3754 0.6155,0.6484 0.1535,0.2736 0.2224,0.5974 0.2224,0.9731 0,0.3418 -0.0516,0.6316 -0.1549,0.905 -0.102,0.2561 -0.2555,0.4949 -0.4606,0.6827 -0.1881,0.1878 -0.4105,0.3413 -0.6658,0.4608 -0.257,0.1367 -0.5453,0.2393 -0.871,0.3419 0.4277,0.5801 0.8021,1.0582 1.0934,1.451 0.2897,0.3922 0.6485,0.8704 1.0588,1.4336 0.1866,0.2388 0.3401,0.4271 0.4935,0.5465 0.1551,0.1193 0.2912,0.2046 0.4448,0.2902 0.102,0.0512 0.2382,0.102 0.4089,0.1195 0.1708,0.0342 0.2913,0.0511 0.4104,0.0511l0 0.4096 -0.0172 0z"/>
   <path class="fil1" d="M173.3024 49.2152c0.188,0.2045 0.3243,0.4265 0.4104,0.6826 0.0847,0.2394 0.1363,0.5291 0.1363,0.8537 0,0.7852 -0.2897,1.4169 -0.8537,1.9291 -0.5811,0.5123 -1.2798,0.7684 -2.1336,0.7684 -0.3931,0 -0.7848,-0.0684 -1.1778,-0.2051 -0.3931,-0.1368 -0.7346,-0.2903 -1.0073,-0.4607l-0.2726 0.4607 -0.4963 0 -0.0847 -3.0045 0.4951 0c0.1017,0.3754 0.2224,0.7173 0.3586,1.0069 0.1364,0.3078 0.3243,0.5807 0.5467,0.8368 0.221,0.2562 0.4607,0.444 0.7504,0.5975 0.2899,0.1537 0.614,0.2219 1.0072,0.2219 0.2898,0 0.5467,-0.0342 0.7519,-0.1193 0.2209,-0.0683 0.3917,-0.1709 0.5121,-0.3077 0.1364,-0.1363 0.221,-0.3071 0.2898,-0.4774 0.0688,-0.1878 0.1019,-0.393 0.1019,-0.6317 0,-0.3588 -0.1019,-0.6833 -0.2898,-0.9904 -0.1879,-0.3072 -0.4949,-0.5291 -0.8882,-0.7 -0.2725,-0.102 -0.5795,-0.222 -0.9211,-0.3582 -0.3415,-0.1367 -0.6485,-0.2561 -0.9053,-0.3587 -0.4949,-0.222 -0.8868,-0.5122 -1.1607,-0.8705 -0.2725,-0.3587 -0.4089,-0.8367 -0.4089,-1.4169 0,-0.3418 0.0674,-0.6489 0.2037,-0.9392 0.1377,-0.2898 0.3257,-0.546 0.581,-0.7679 0.2382,-0.222 0.5123,-0.3755 0.8538,-0.5122 0.3243,-0.1194 0.6658,-0.1878 1.0244,-0.1878 0.4088,0 0.7676,0.0684 1.0919,0.1878 0.3242,0.1194 0.6154,0.2728 0.8708,0.4438l0.2569 -0.427 0.4935 0 0.0518 2.9194 -0.495 0c-0.0847,-0.3413 -0.188,-0.649 -0.3071,-0.9561 -0.119,-0.3072 -0.2554,-0.58 -0.4433,-0.8363 -0.1879,-0.2394 -0.393,-0.4271 -0.6499,-0.5806 -0.2554,-0.1368 -0.5797,-0.2218 -0.9383,-0.2218 -0.3931,0 -0.7333,0.1193 -1.0073,0.3753 -0.2726,0.2562 -0.4088,0.5634 -0.4088,0.922 0,0.3755 0.0846,0.7 0.2726,0.9388 0.1707,0.2562 0.426,0.4612 0.7675,0.6148 0.307,0.1536 0.5984,0.2729 0.8882,0.3754 0.2898,0.1026 0.581,0.222 0.8537,0.3414 0.2383,0.1026 0.4777,0.222 0.7159,0.3587 0.2066,0.1536 0.3932,0.3071 0.5639,0.4949z"/>
   <path class="fil1" d="M178.7834 53.2437l-3.9615 0 0 -0.444c0.1033,0 0.2727,-0.0167 0.4778,-0.0342 0.2052,-0.0168 0.3588,-0.0342 0.4448,-0.0682 0.1364,-0.0511 0.2381,-0.1194 0.3071,-0.222 0.0673,-0.0852 0.0846,-0.2214 0.0846,-0.3924l0 -6.3673c0,-0.1536 -0.0173,-0.2562 -0.0674,-0.3588 -0.0517,-0.1024 -0.155,-0.1703 -0.3243,-0.2387 -0.1191,-0.0516 -0.274,-0.1026 -0.4606,-0.1368 -0.1893,-0.051 -0.343,-0.0683 -0.4621,-0.0852l0 -0.4612 3.9615 0 0 0.4438c-0.1378,0 -0.2741,0.0174 -0.4621,0.0517 -0.1706,0.0168 -0.3415,0.051 -0.4606,0.1026 -0.1535,0.051 -0.2555,0.1361 -0.3243,0.2388 -0.0516,0.1194 -0.0847,0.2388 -0.0847,0.3754l0 6.3674c0,0.1367 0.0332,0.2561 0.0847,0.3587 0.0688,0.102 0.1708,0.1876 0.3071,0.2561 0.086,0.0342 0.2224,0.0679 0.4275,0.102 0.1879,0.0342 0.3574,0.0683 0.4935,0.0683l0 0.444 0.0188 0z"/>
   <path class="fil1" d="M187.062 46.8253l-0.4275 0c-0.033,-0.1537 -0.1019,-0.3245 -0.2038,-0.5297 -0.1033,-0.2045 -0.2051,-0.3923 -0.3242,-0.58 -0.1206,-0.1877 -0.2569,-0.3588 -0.4105,-0.4948 -0.1535,-0.1368 -0.2897,-0.2221 -0.4261,-0.2394 -0.1378,-0.0168 -0.2912,-0.0342 -0.4964,-0.0342 -0.1864,0 -0.3744,-0.0168 -0.5452,-0.0168l-0.3588 0 0 7.05c0,0.1369 0.0345,0.2562 0.0846,0.3755 0.069,0.1194 0.1551,0.205 0.3085,0.2562 0.0675,0.0342 0.2382,0.0683 0.4606,0.1193 0.2397,0.0517 0.4263,0.0683 0.5467,0.0858l0 0.4438 -4.1494 0 0 -0.4613c0.1206,0 0.2912,-0.0167 0.5309,-0.051 0.2381,-0.0174 0.3916,-0.0515 0.4935,-0.0852 0.1378,-0.0515 0.2397,-0.1367 0.307,-0.2393 0.0689,-0.1026 0.1033,-0.2388 0.1033,-0.4096l0 -7.1016 -0.3587 0c-0.1191,0 -0.2897,0 -0.4777,0 -0.1879,0.0174 -0.3758,0.0174 -0.5466,0.0342 -0.1365,0.0174 -0.2726,0.1026 -0.4262,0.2393 -0.1364,0.1536 -0.2912,0.3072 -0.4104,0.4949 -0.1191,0.1878 -0.2382,0.3928 -0.3242,0.5974 -0.1019,0.2051 -0.1535,0.3754 -0.2052,0.5123l-0.4434 0 0 -2.3899 7.6819 0 0 2.4241 0.0172 0z"/>
   <path class="fil1" d="M196.0582 44.8788c-0.0675,0 -0.188,0.0343 -0.3415,0.0858 -0.1537,0.051 -0.2555,0.102 -0.3243,0.1536 -0.1708,0.1026 -0.2726,0.1703 -0.3244,0.2219 -0.0516,0.0512 -0.1707,0.1878 -0.3414,0.4266 -0.3243,0.4613 -0.614,0.922 -0.8882,1.3827 -0.2725,0.4612 -0.614,1.0586 -1.0245,1.7755 -0.1535,0.2562 -0.2553,0.478 -0.307,0.6316 -0.0503,0.1536 -0.0673,0.3929 -0.0673,0.7l0 1.673c0,0.1535 0.0329,0.2728 0.0846,0.3922 0.0689,0.1026 0.1706,0.2052 0.3071,0.2563 0.0859,0.0342 0.2395,0.0683 0.4605,0.1194 0.2224,0.0515 0.4103,0.0682 0.5467,0.0682l0 0.444 -4.1135 0 0 -0.4098c0.1191,0 0.2897,-0.0167 0.5121,-0.051 0.2397,-0.0174 0.3931,-0.0515 0.4778,-0.0852 0.1535,-0.0682 0.2568,-0.1367 0.307,-0.2561 0.0518,-0.1026 0.0862,-0.2393 0.0862,-0.3928l0 -2.1337c0,-0.0684 -0.0345,-0.1878 -0.1207,-0.3587 -0.0846,-0.1705 -0.1706,-0.3756 -0.2897,-0.5801 -0.2555,-0.478 -0.5295,-0.9904 -0.8192,-1.5536 -0.307,-0.5633 -0.564,-1.0413 -0.7849,-1.4343 -0.1364,-0.2387 -0.2569,-0.4096 -0.3588,-0.529 -0.1033,-0.1194 -0.2224,-0.2219 -0.3588,-0.3245 -0.1033,-0.051 -0.2224,-0.1021 -0.3586,-0.1362 -0.1364,-0.0342 -0.2555,-0.0516 -0.3744,-0.0684l0 -0.4612 3.7548 0 0 0.4438c-0.4263,0.0174 -0.7175,0.0343 -0.8868,0.0858 -0.1722,0.051 -0.2568,0.1194 -0.2568,0.2045 0,0.0174 0.0171,0.0683 0.0344,0.1368 0.0172,0.0683 0.0673,0.1368 0.1019,0.2388 0.0516,0.1026 0.1205,0.2394 0.1879,0.3755 0.0673,0.1367 0.1363,0.2734 0.2051,0.4097 0.1879,0.3588 0.3918,0.7341 0.5968,1.1096 0.2053,0.3588 0.4606,0.8368 0.7849,1.4342 0.6485,-1.0414 1.145,-1.8607 1.4851,-2.4413 0.3414,-0.58 0.5136,-0.9388 0.5136,-1.0413 0,-0.1027 -0.0345,-0.1704 -0.1033,-0.2388 -0.0689,-0.0517 -0.1535,-0.1026 -0.2725,-0.1369 -0.1206,-0.0342 -0.2569,-0.051 -0.3932,-0.0683 -0.1362,-0.0168 -0.2725,-0.0168 -0.3916,-0.0342l0 -0.478 3.0547 0 0 0.4438z"/>
   <path class="fil0" d="M95.6992 26.733c-0.2561,0.0342 -0.5122,0.051 -0.751,0.0683 -0.7001,0.2045 -1.4686,0.4948 -2.2704,0.7511 -0.8193,0.2727 -1.9974,0.7167 -2.868,0.0682 -0.0683,-0.0682 -0.0341,-0.0173 -0.0857,-0.1535 0.7853,-0.8368 0.7684,-1.3316 1.9633,-1.8949 0.0168,-0.8194 0.3414,-1.8097 -0.0683,-2.3389 0.0851,-1.2464 1.5535,-0.6316 2.6459,-0.9046 0.6659,-0.1708 1.5027,-0.4096 2.0484,-0.7516 0.6493,-0.4096 1.2976,-1.2969 1.5878,-2.0484 0.1194,-0.3072 -0.0172,-0.9388 0.1537,-1.2118l0 -0.6148c-0.0511,-0.1194 -1.929,-0.7336 -2.1851,-0.9044 -0.1878,-0.1368 -0.6827,-0.5292 -0.7511,-0.7511 -0.0682,-0.2051 0.0173,-0.3929 -0.0682,-0.5291 -0.0853,-0.1878 -0.1704,-0.1709 -0.3073,-0.3077 -0.3754,0.0342 -0.4949,0.171 -0.6485,0.3077 -0.0515,0.051 -0.1367,0.0851 -0.1709,0.1362 -0.0342,0.0516 0,0.12 0,0.1878l0 1.8438c-0.1878,0.4098 -1.007,0.6486 -1.3658,0.9046 -0.3071,0.3246 -0.6142,0.649 -0.9046,0.9903 -0.4438,-0.0342 -0.4779,-0.2051 -0.7511,-0.3754 -0.6489,-3.0557 -0.9385,-5.6165 -3.0213,-7.1869 -0.4954,-0.3754 -0.8878,-1.127 -1.5194,-1.3657 -0.2221,0.5974 -0.5122,1.229 -0.6827,1.8438 -0.0343,0.1362 0.0167,0.2728 -0.0174,0.4097 -0.3755,1.3996 -0.6658,2.8337 -1.0415,4.3189 -0.0849,0.3581 -0.5289,2.253 -0.4606,2.5775 0.3239,1.5021 0.7511,3.4311 1.1265,4.8312 0.1877,0.6484 0.0342,1.1264 0.222,1.7408 0.3414,1.0929 1.3142,3.9265 2.1168,4.4555 0.9046,0.5974 2.3899,0.8705 3.5506,0.3755 0.3588,-0.1537 0.6658,-0.6659 0.9045,-0.7511l1.1271 0c1.1095,-0.307 2.2188,-0.5974 3.3285,-0.9044 0.3928,-0.171 1.3825,-0.7 1.6561,-0.9905 0.4096,-0.4096 0.4265,-1.2121 0.9044,-1.6555 0.0169,-0.5464 -0.051,-0.7683 -0.2218,-1.0587 -1.4,0.0852 -2.2195,0.5292 -3.175,0.8879z"/>
   <path class="fil0" d="M75.0603 27.791l0 0.9735c-0.1363,0.3072 -0.8362,0.5633 -1.1266,0.7509 -0.2561,0.1705 -0.5464,0.4781 -0.8362,0.5975 -0.5296,0.2387 -0.9904,0.2387 -1.434,0.5291 -0.4099,0.2562 -0.8705,0.6316 -1.2801,0.9046 -0.3079,0.205 -1.4001,0.6316 -1.8949,0.3076 -0.0685,-0.0342 -0.1539,-0.0515 -0.2221,-0.0684 0.0509,-0.8192 0.6484,-1.1779 0.9897,-1.7412 0.6659,-1.0755 1.5369,-1.9801 2.1853,-3.0214 0.0511,-0.1708 0.1026,-0.3587 0.1536,-0.529 0.2393,-0.376 0.7343,-0.6832 0.9053,-1.1271 1.331,0.0342 2.0141,-0.6484 2.2702,-1.673 0.1878,0.0174 0.2556,0.0342 0.3756,0.0858 0.0166,0.8362 0.034,1.8265 0,2.6459 -0.0343,0.4098 0.0852,1.0923 -0.0858,1.3653zm3.9267 -10.9592l0 0c-0.0175,-1.0072 0.0168,-2.1511 -0.1537,-2.9531 -0.1369,-0.6491 0.1537,-1.5027 -0.0682,-2.0317 -0.7001,-1.6388 -3.6532,-3.0898 -5.292,-3.9262 -0.6317,-0.3244 -0.6317,-0.9561 -1.5195,-1.1269 -0.2052,-0.0342 -0.6149,0.4096 -0.5975,0.5295 -0.0515,1.024 0.751,1.4338 1.2803,2.0995 0.3244,0.4098 0.529,0.8706 0.8367,1.2802 0.4774,0.6491 1.2974,1.1949 1.5872,2.0317 0.4612,1.3485 0.4779,4.7629 0.1536,6.2821l0 1.5189c-0.0512,0.5806 -0.102,1.1613 -0.1536,1.7413 -0.4265,-0.1535 -0.6996,-0.58 -1.1266,-0.7509 -0.3245,-0.0512 -0.6484,-0.1026 -0.9903,-0.1537 -0.307,-0.1877 -0.4949,-0.5464 -0.9046,-0.6826 -0.4606,-0.1543 -0.8705,0.0168 -1.3659,-0.1543 -0.5289,-0.1877 -0.6827,-0.5974 -1.5189,-0.5974 -0.1707,0.0174 -0.478,0.2735 -0.4612,0.376 0.1195,0.6317 0.649,0.9556 0.8368,1.5189l0 0.5974c0.1195,0.4781 0.2562,1.1271 0.3755,1.6562 0.1876,0.8705 -0.3587,1.3659 -0.5291,1.8949 -0.6658,2.1678 -1.0589,4.353 -2.7485,5.4628 -0.0685,0.0336 -0.1195,0.0851 -0.1536,0.1703 -0.0343,0.0511 -0.0343,0.2393 -0.0343,0.2903 -0.0343,1.2458 -0.2393,3.6699 0.9045,4.0459 0.0343,0.0336 0.1195,0.0677 0.1195,0.0677 0.1193,0.0517 1.1439,0.0517 1.3316,0 0.4097,-0.2044 1.1264,-1.2632 1.5879,-1.5872 0.6827,-0.4953 1.4335,-0.8025 2.1169,-1.2807 0.1192,-0.1535 0.2554,-0.3071 0.3753,-0.4439 0.6995,-0.5116 1.3654,-1.0581 1.9628,-1.6556 0.0683,-0.0342 0.1876,-0.0509 0.2219,0 0.0516,0.2562 0.171,0.8194 0,1.0582 -0.0169,1.2975 -0.1536,2.2195 0.3756,3.022 0.2902,0.0169 0.7341,0.0337 0.905,-0.0684 0.5973,-0.2219 0.8878,-1.229 1.1264,-1.8097 0.6484,-1.5195 0.8026,-3.3285 1.2122,-5.1383 0.0168,-0.6315 0.0511,-1.2631 0.068,-1.8948 0.3753,-1.7072 0.3075,-3.7899 0.3075,-5.7525 0.0341,-0.7853 0.0512,-1.5711 0.0678,-2.3389 -0.0678,-0.3928 -0.1361,-0.8535 -0.1361,-1.2974z"/>
   <path class="fil0" d="M175.6585 13.5884c0.2395,0.3245 0.6657,0.58 0.9052,0.9046 0.7848,1.1096 1.0071,3.397 1.4334,4.8312 1.3658,-0.0174 1.9298,-1.195 2.5782,-1.9634 0,-1.8775 -1.9298,-4.7627 -3.0216,-5.5137 -0.6313,-0.4439 -1.4005,-0.6317 -2.0488,-1.0582 -0.683,-0.4613 -1.059,-1.1097 -1.894,-1.4341 -0.1205,-0.0344 -0.3588,0.2218 -0.3758,0.307l0 1.2122c0.2725,0.222 0.5625,0.4608 0.8364,0.6827 0.528,0.7 1.0576,1.3148 1.587,2.0317z"/>
   <path class="fil0" d="M189.4179 14.715c-0.2912,0.3928 -0.5121,0.8535 -0.7519,1.2807 -0.2036,-0.0174 -0.2554,-0.0343 -0.3744,-0.0684 -0.2224,-1.1097 -0.3084,-1.9632 -0.6829,-2.8 -0.2569,-0.0511 -0.3932,-0.0852 -0.6156,0.0683 -0.4433,0.3754 -0.1191,1.3659 -0.6815,1.8097 -0.2224,0.222 -0.8035,-0.6316 -0.9742,-0.751 0.1362,-1.622 1.6901,-2.8169 2.4936,-3.8582 1.4506,0.0343 2.4922,0.7511 3.8566,0.8368 -0.0503,1.7924 -1.485,2.424 -2.2698,3.4822zm2.4062 0.9903l0 0c1.1794,-1.5193 2.7491,-2.9193 3.4821,-4.8312 0.2053,-0.5464 1.1105,-1.8774 0.531,-2.6459 -0.2569,-0.3928 -0.9916,-0.1535 -1.5196,-0.3072 -0.2395,-0.0682 -0.4102,-0.3244 -0.5981,-0.3754 -0.3415,-0.1026 -0.7002,0.1704 -0.9055,0.2214 -0.9554,0.3078 -1.7747,0.4098 -2.6457,0.7517 -0.3917,0.1535 -1.4849,0.8192 -1.9627,0.529 -0.0675,-0.0174 -0.1535,-0.051 -0.2224,-0.0684 0.086,-1.451 1.1105,-2.3045 1.5884,-3.4821 0.1362,-0.3419 0.5809,-1.2465 0.307,-1.6561 -0.0345,-0.6827 -0.7519,-1.144 -1.1263,-1.5195 -0.1206,-0.1026 -0.683,0.0858 -0.683,0.3072 0.0345,1.9291 -0.7848,4.0118 -1.8953,4.7627 -0.3588,0.2394 -0.6658,0.1368 -1.1263,0.3078 -0.7504,0.2562 -1.5365,1.0239 -2.4233,0.3755 -0.4621,0 -0.5122,0.0682 -0.7518,0.2219 0.0847,0.751 0.5294,1.3826 1.1263,1.5872 0.1535,0.0858 0.7001,0.0173 1.0589,0 -0.0173,0.5974 -0.4778,1.0929 -0.8366,1.3659 0,0.2561 0.0172,0.4438 0.0689,0.5974 0.8192,0.1536 0.9727,-0.273 1.7404,-0.3072 -0.1193,0.8536 -0.8193,1.2634 -1.2124,1.8949 -0.5123,0.102 -1.2627,0.1705 -1.7404,0.222 -0.0345,0 -0.086,0.0684 -0.0688,0.0852 0.0173,0.5806 0.2397,0.7684 0.5968,0.973 -0.2037,0.7853 -0.8351,1.3484 -1.2798,1.9633 -0.1708,0.2388 -0.6816,0.58 -0.3745,1.0581 0.102,0.1709 0.2211,0.1877 0.4606,0.2219 0.7677,-0.7336 2.0475,-1.0756 2.4234,-2.1846 1.1953,0.0678 1.1953,0.3582 1.8953,0.8362 -0.0345,0.4265 -0.2395,0.8704 -0.4606,1.1265 0,0.2903 0.0158,0.5632 0.0846,0.751 0.9055,-0.0336 2.2542,-1.229 2.8682,-0.8362l0.1535 0c-0.1033,0.5122 -0.6829,0.5291 -1.0574,0.751 -0.8034,0.4948 -1.7589,0.8194 -2.6471,1.2807 -1.1938,0.6316 -2.5267,1.331 -3.6185,2.0485 -0.3244,0.102 -0.6487,0.2046 -0.9902,0.3072 -1.792,1.0581 -3.4994,2.3897 -5.3603,3.397 -0.0516,0.1368 -0.0171,0.0683 -0.0688,0.1535 0,0.2394 0.0344,0.3929 0.0688,0.5292 2.3043,0.478 4.1481,-0.58 5.7521,-1.2118 2.1507,-0.8535 4.1995,-2.2536 5.9758,-3.5504 0.5797,-0.427 0.9901,-1.127 1.5869,-1.5195 0.4606,-0.3076 0.8708,-0.427 1.2812,-0.751l0.3744 0c-0.1362,0.4607 -0.4605,0.6484 -0.6829,0.9898 -0.0846,0.2051 -0.1536,0.4097 -0.221,0.5974 -0.4103,0.3755 -0.8035,0.7511 -1.2124,1.1265 -0.1879,0.2562 -0.3586,0.649 -0.614,0.8368 -0.5982,0.4607 -1.2813,0.9046 -1.7418,1.5195 -0.0689,0.102 0.0344,0.5116 0.0688,0.7509 1.2109,-0.1025 1.9111,-0.8877 2.7992,-1.2807 0.5467,-0.2556 1.1436,-0.307 1.6558,-0.5974 0.3587,-0.2044 0.5295,-0.6142 0.8364,-0.8361 1.4678,-1.0924 2.7992,-1.9459 2.4922,-4.6093 -0.3758,-0.1367 -0.9211,-0.1535 -1.2124,-0.3754l-1.5867 0c0.2381,-0.8878 1.109,-0.8878 1.5696,-1.5021z"/>
   <path class="fil0" d="M173.2351 21.663c0.1879,0.444 0.6829,0.9556 0.8364,1.4336 0.3243,0.0684 0.4777,0.0342 0.8366,0 0.5795,-0.6142 0.9554,-1.1607 1.1262,-2.2021 0.1535,-0.8877 -1.673,-3.1239 -2.2699,-3.3285 -0.1535,-0.1025 -0.4964,-0.0857 -0.7517,-0.0682 -0.1191,0.5122 0.1706,2.0825 0.2224,2.6459l0 1.5194z"/>
   <path class="fil0" d="M186.4651 26.0503c-0.5809,0.751 -2.9872,0.7168 -4.0131,1.1264 -1.3988,0.5799 -2.8839,1.0413 -4.3013,1.6556 -0.9384,0.4096 -1.9285,0.9729 -2.8668,1.3658 -0.2569,0.0511 -0.5123,0.1026 -0.7518,0.1535 -0.4103,0.171 -0.8537,0.5975 -1.2124,0.7512 -0.3588,0.0173 -0.7002,0.0515 -1.0588,0.0682 -0.3744,0.171 -0.5625,0.5466 -0.8351,0.8368 0.0159,1.3485 0.7159,1.7408 1.0575,2.5093 0.0688,0.1535 0,0.307 0.1535,0.5122 0.1205,0.1194 0.4606,0.2561 0.6829,0.3072 0.5294,0.1024 1.2985,-0.3756 1.6558,-0.5292 1.4176,-0.6148 2.4762,-1.6562 3.7045,-2.4239 0.4435,-0.2736 1.1263,-0.5976 1.587,-0.7512 0.5465,-0.1876 0.9569,-0.0173 1.4346,-0.2219 0.8711,-0.3588 0.5123,-0.9562 1.8094,-0.5296 0.0516,0.2052 0.1879,0.3754 0.2224,0.5296 0.1536,0.5291 -0.1708,1.1775 -0.0688,1.5873 0.1033,0.4439 0.2568,0.5464 0.2224,1.127 -0.1708,0.1878 -0.2398,0.5291 -0.4606,0.6827 -0.6487,0.478 -1.6903,0.6827 -2.5612,0.9046 -0.5982,0.1536 -1.3486,-0.2562 -1.8093,0.0682l-0.1536 0c0.0173,0.2562 0.0345,0.393 0.1536,0.5292 0.2224,0.6832 0.6486,0.4439 1.366,0.6832 0.6986,0.2218 1.4505,1.2116 2.6457,0.529 0.2555,-0.1368 0.3414,-0.5122 0.6829,-0.5974 0.5968,-0.1709 1.1436,0.102 1.5195,-0.222 0.3573,-0.1878 0.4261,-0.6316 0.5969,-0.9903 0.1708,-0.3072 0.4261,-0.7853 0.5294,-1.1266 0.1364,-0.5122 -0.1362,-0.9903 -0.2224,-1.2801 -0.0503,-0.3076 -0.1018,-0.598 -0.1536,-0.905 -0.2898,-0.7 -0.7346,-1.0925 -0.7504,-2.1169 -0.0171,-0.1194 0.1191,-0.2562 0.2211,-0.3072 0.8364,-0.2046 1.6729,-0.3922 2.8005,-0.3754 0.3588,-0.3588 0.8537,-0.6148 1.1263,-1.0582 0.1879,-0.2902 0.1879,-0.7 0.376,-0.9902 0,-0.7344 -0.2569,-0.8026 -0.5296,-1.2124 -1.0932,0 -1.7589,-0.2896 -2.7992,-0.2896z"/>
   <path class="fil0" d="M159.0996 16.5247c0.2224,-0.3244 0.2224,-0.6148 0.5295,-0.8368 0.2383,-0.1535 -0.0689,-1.007 -0.2224,-1.0581 -2.8337,-0.6316 -3.0719,1.4511 -4.5396,2.5775 -0.6673,0.5122 -1.4348,0.8536 -2.1177,1.3659l-0.1537 0c-0.2726,-1.5027 -0.0846,-3.4996 -0.0846,-5.1384l0 -1.9631c0.0502,-0.1369 0.3071,-0.3072 0.3744,-0.4608 0.2569,-0.5974 0.1378,-1.5537 -0.1536,-2.0318 -0.4089,-0.6658 -1.2626,-0.8362 -1.8939,-1.28 -0.3242,-0.2393 -0.5809,-0.6659 -0.9728,-0.8368 -0.6154,-0.2562 -1.2985,-0.0169 -1.8107,-0.3755 -0.3415,0.0511 -0.4433,0.171 -0.6829,0.3072 -0.6658,1.7413 0.9742,4.1826 1.4348,5.4459 0.4089,1.0924 0.4261,4.4893 0.1536,5.7358 -0.2053,0.9556 0.119,2.3723 -0.3759,3.0213 -0.2898,0.3924 -2.7648,1.2292 -3.3976,1.5195 -0.5281,0.2388 -1.1608,0.5633 -1.7408,0.751 -0.6484,0.222 -1.2632,0.273 -1.8091,0.6143 -0.8367,0.5122 -2.1852,1.4169 -3.1072,1.7412 -0.273,0.0174 -0.5458,0.0517 -0.8362,0.0685 -0.3928,0.1193 -0.8878,0.3413 -1.2807,0.4439 -0.2387,0.0682 -0.5458,0.0851 -0.6141,0.0851 -0.273,-0.2729 -0.6318,-0.6658 -0.8367,-0.9898 -0.1021,-0.1368 -0.2391,-0.222 -0.324,-0.1708 -0.0518,0 -0.1201,0.0682 -0.1369,0.2387 -0.0684,2.3561 -0.2387,2.851 0.8362,4.4555 2.2026,0.4613 3.7899,-0.6142 5.2067,-1.5877 0.6315,-0.4266 1.2464,-0.6826 1.8949,-1.1265 0.4781,-0.3244 0.8367,-0.9218 1.3661,-1.2116 0.221,-0.0516 0.4607,-0.1026 0.683,-0.1536 0.99,-0.3929 2.013,-0.9904 3.3286,-1.0587 -0.0172,2.4924 -2.1507,5.0355 -3.7045,6.0427 -0.2398,0.1542 -0.4778,0.3246 -0.7683,0.444 -0.3077,0.1199 -0.5805,0.2561 -0.8194,0.3754 -0.2049,0.0174 -0.4096,0.0516 -0.5979,0.0684 -0.3754,0.1876 -0.8704,0.4954 -1.2116,0.751 -0.5123,0.376 -0.4441,0.7342 -0.751,1.2122l0 0.1535c4.0292,-0.0168 6.5371,-1.7923 8.7739,-3.6361 0.8364,-0.6827 1.878,-1.2969 2.3387,-2.3382 0.5639,-1.2633 0.7691,-2.8001 1.1276,-4.1485 0.0847,-0.5292 0.1536,-1.0582 0.2211,-1.5873 0.2224,-0.3928 1.3314,-0.9904 1.7418,-1.2807 0.3915,-0.2903 0.733,-0.7678 1.1262,-1.0582 0.8021,-0.5974 1.6213,-1.127 2.4247,-1.7412 0.4606,-0.3072 1.0919,-0.8879 1.3817,-1.3485z"/>
   <path class="fil0" d="M159.2531 27.9451c-0.7504,-0.5805 -1.0574,-1.4509 -2.4233,-1.4341 -0.0689,0.0683 -0.1363,0.1026 -0.2224,0.1536 -0.0345,1.7754 0.1879,2.0316 0.683,3.329 0.0516,0.2219 0.1017,0.4434 0.1535,0.6827 0.1706,0.3413 0.8882,1.1439 0.4433,1.8091 0.0861,0.6832 1.2468,0.9394 2.0489,0.6832 0.8537,-0.2734 1.7418,-0.8709 2.2712,-1.5194 -0.0173,-1.9632 -1.8093,-2.8168 -2.9543,-3.7041z"/>
   <path class="fil0" d="M116.5595 4.5068c0.1026,0.085 0.2051,0.1536 0.307,0.2218 0.2736,0.3924 0.6149,1.0582 0.7517,1.5195 0.3071,0.9556 0.3923,2.5602 -0.3077,3.0215 -0.1026,0.0509 -0.0169,0.7677 0.2219,0.7509 1.1949,-0.1535 2.4071,-0.9903 2.8679,-1.8949 2.0827,0.0684 3.2434,-0.5464 3.1072,-2.6459 -0.2051,-0.2219 -0.2903,-0.5806 -0.5297,-0.7511 -0.6141,-0.478 -1.331,-0.9561 -1.9627,-1.3658 -0.2903,-0.1877 -0.683,-0.1877 -0.9903,-0.3754 -1.0756,-0.6485 -1.9458,-1.3142 -3.704,-1.2801 -0.8712,1.024 -0.3246,1.007 0.0676,1.8949 0.0684,0.307 0.12,0.5974 0.171,0.9046z"/>
   <path class="fil0" d="M114.8864 18.3512c0.5632,0.1536 1.8949,-0.1537 2.3388,-0.3071 1.2633,-0.427 2.6118,-2.6802 3.7042,-3.4827 0.7342,-0.5291 1.5535,-1.3142 2.4245,-1.6556 0.324,-0.0517 0.6485,-0.1025 0.9899,-0.1542 0.3244,-0.3582 0.6489,-0.6995 0.9903,-1.0582 -0.0174,-0.427 -0.1195,-0.7684 -0.3071,-0.751l-0.9051 0c-0.3924,0.2562 -1.1265,0.1536 -1.5872,0.3072 -0.8536,0.2561 -1.7589,0.6484 -2.5783,0.9044 -0.2218,0.0174 -0.4605,0.0517 -0.6825,0.0685 -2.4924,0.9387 -5.1041,2.0142 -7.4772,3.0213 -0.1535,0.3755 -0.4948,0.9393 -0.1535,1.3659 0.2561,0.7509 2.3896,1.5194 3.2433,1.7413z"/>
   <path class="fil0" d="M122.4488 25.0767c-0.9214,0 -1.7582,-0.1878 -2.5775,0.0857 -0.3931,0.1194 -0.5635,0.4439 -0.9906,0.5292 0.0858,-0.4949 1.0414,-1.0756 1.366,-1.4342 0.2561,-0.2898 0.5122,-0.6654 0.8368,-0.9046 0.2555,-0.2046 0.6314,-0.3414 0.8361,-0.5974 0.1367,-0.1703 0.2219,-0.4608 0.3754,-0.5974 0.1195,-0.0169 0.2561,-0.051 0.3755,-0.0685 0.1878,-0.1702 0.2394,-0.5122 0.4612,-0.6825 0.6319,-0.478 1.246,-0.5806 1.6556,-1.2807 0.0852,-0.1536 -0.0681,-0.4608 -0.2218,-0.5974 -0.495,-0.3924 -2.9705,-0.7338 -3.8577,-0.4608 -0.4438,0.1368 -1.0755,0.4096 -1.4341,0.6828 -0.1194,0.1708 -0.2561,0.3587 -0.3755,0.5295 -0.3756,0.0512 -0.7511,0.102 -1.1264,0.1536 -0.4614,0.273 -0.8368,0.8194 -1.2807,1.1266 -0.922,0.6484 -1.8949,1.1781 -2.868,1.7413 -0.4266,0.2388 -0.922,-0.7853 -1.2115,-0.9731 -0.1878,-0.1367 -0.4272,-0.1536 -0.5976,-0.3076 -0.1708,0.0174 -0.2051,0.0174 -0.3076,0.0682 -0.1705,0.0517 -0.1705,0.0858 -0.3073,0.1538 -0.0341,0.5296 0.2053,1.1781 0.0684,1.7412 -0.2902,1.2465 -0.8366,3.5336 -0.3753,4.9848 0.0682,0.2388 0.3582,0.529 0.4606,0.751 0.1194,0.2902 0.0684,0.5633 0.2221,0.8367 0.2218,0.3923 0.7341,0.5116 0.9045,0.9899 0.6658,-0.1363 1.8096,-2.2189 2.3219,-3.0215 0,0 0,0 0,-0.0168 0.1195,-0.1878 0.1027,-0.3245 0.1027,-0.4439l0 -1.878c0.2556,-0.0683 0.751,-0.1536 0.9897,-0.3071 0.3588,0 0.478,0.0342 0.6833,0.1536 -0.0175,0.2394 -0.8711,2.2876 -0.9907,2.4238 0.0686,0.5292 0.4099,0.7174 0.8365,0.8368 -0.1365,1.0239 -1.2802,1.2459 -1.9628,1.7413 -0.8194,0.5801 -1.7072,1.2116 -2.5781,1.7408 -0.3414,0.2052 -0.7168,0.2393 -1.0581,0.4613 -0.2053,0.1362 -0.3928,0.4096 -0.5974,0.5291 -0.3588,0.2219 -0.7342,0.2219 -1.0583,0.4607 -0.1541,0.1194 -0.222,0.3928 -0.4438,0.4613 -0.3076,0.0852 -0.5638,-0.1878 -0.7516,-0.222 -0.4608,-0.1026 -0.8021,0.222 -1.1265,0.3072 -0.0852,1.8607 0.7169,3.7557 2.7995,3.7724 1.0412,-1.1097 2.1683,-2.0142 3.0898,-3.2434 0.3246,-0.2728 0.649,-0.5464 0.9904,-0.8362 0.2221,-0.3245 0.2729,-0.6148 0.5291,-0.905 0.0852,-0.102 0.256,-0.0678 0.3753,-0.1537 0.2737,-0.307 0.5467,-0.5974 0.8368,-0.9044 0.2563,-0.1878 0.4949,-0.2052 0.6828,-0.4608 0.1536,0.0336 0.1536,0.0168 0.2219,0.0677 0.2053,0.2562 0.1878,0.7 0.3755,0.9735 0.0174,0.6828 0.0684,1.4511 -0.3755,1.6725 -0.2219,0.0516 -0.444,0.1026 -0.6827,0.1542 -0.1876,0.1361 -0.2562,0.4607 -0.4438,0.5974l0 0.4607c0.0509,0.1026 1.3825,0.5464 1.5872,0.6827 0.1541,0.1026 0.4612,0.4955 0.5295,0.6831l0 0.6827c0.0852,0.2052 0.4608,0.4608 0.6144,0.6827 0.2393,0.0516 0.7509,0.1542 0.9903,0 0.0685,-0.0168 0.1535,-0.0509 0.2221,-0.0678 -0.0343,-2.3219 -0.1709,-4.4388 -0.8368,-6.197 -0.2221,-0.5973 -1.0583,-1.6897 -0.5292,-2.4923 0,-1.1265 0.7685,-0.802 1.4344,-1.2116 0.9212,-0.5639 1.9285,-1.0929 2.7992,-1.7412 0.3414,-0.2394 0.4782,-0.666 0.7511,-0.9904 -0.1192,-0.4607 -0.2728,-0.6143 -0.3586,-0.922z"/>
   <path class="fil0" d="M126.836 30.1297c-0.7853,-1.0756 -1.6215,-2.0826 -3.5503,-2.0312 -0.137,0.0853 -0.4272,0.0853 -0.6832,0.0679 -0.3756,1.5709 -0.3414,2.8343 0.4438,4.0118 0.2051,0.1709 0.4096,0.3587 0.5974,0.529 0.4439,0.6659 0.7001,1.3148 1.5195,1.5879 0.8193,0.529 1.8097,-0.4948 2.1852,-0.7511 0.1193,-0.4438 0.478,-1.878 0.2219,-2.2704 -0.0172,-0.6484 -0.4612,-0.751 -0.7342,-1.1439z"/>
  </g>
 </g>
</svg>
